<svg xmlns="http://www.w3.org/2000/svg" viewBox="0 0 500 500"><g id="freepik--Floor--inject-139"><ellipse id="freepik--floor--inject-139" cx="250" cy="345.35" rx="235.59" ry="136.02" style="fill:#f0f0f0"></ellipse></g><g id="freepik--Shadows--inject-139"><ellipse id="freepik--Shadow--inject-139" cx="436.67" cy="366.68" rx="39.9" ry="23.03" style="fill:#e0e0e0"></ellipse><path id="freepik--shadow--inject-139" d="M200,462.3,39.1,369.42a.74.74,0,0,1,0-1.4l247-142.62a2.65,2.65,0,0,1,2.42,0l160.87,92.87a.74.74,0,0,1,0,1.4l-247,142.63A2.71,2.71,0,0,1,200,462.3Z" style="fill:#e0e0e0"></path></g><g id="freepik--Plants--inject-139"><g id="freepik--plants--inject-139"><path d="M62.94,335.88s.74-17.56-5.74-32.3-17-24.94-27.84-27.53S8,282.18,18.71,291s30.48,19.17,36,46.68Z" style="fill:#F62222"></path><path d="M62.94,335.88s.74-17.56-5.74-32.3-17-24.94-27.84-27.53S8,282.18,18.71,291s30.48,19.17,36,46.68Z" style="opacity:0.15"></path><path d="M60.41,330.89h.13a.6.6,0,0,0,.44-.72c-7.13-30.41-27.36-45.82-37.07-49.71a.58.58,0,0,0-.77.33.59.59,0,0,0,.33.77c9.5,3.82,29.33,18.94,36.35,48.88A.6.6,0,0,0,60.41,330.89Z" style="fill:#fff"></path><path d="M42.6,362.83c1.64,5.32,5.66,8.22,11.12,9.28,3.47.67,9.05,0,12-2.17,4.08-3,5.46-5.2,6.31-8.15a49.53,49.53,0,0,0,1.76-12.06c.11-3-1.52-5.62-2.74-7.36A23.44,23.44,0,0,0,68.92,340c-.83-.88-1.77-1.65-2.65-2.48a9.5,9.5,0,0,1-2.79-4c-.68-2.2,0-4.58,0-6.89a10.59,10.59,0,0,0-8.08-10.06,48.88,48.88,0,0,0-6.92-1.22c-3.46-.32-7.2.69-10.58-.37s-6.31-2.78-9.77-3.44c-3.62-.7-7.64-.15-10.48,2.37a6.51,6.51,0,0,0-2.4,5.63c.37,2.31,2.35,4,4.24,5.4s3.92,2.91,4.54,5.18c1.25,4.56-4,9.14-2.54,13.64a7.35,7.35,0,0,0,4.1,4.09c1.49.71,3.09,1.12,4.65,1.68a20.77,20.77,0,0,0,2.31.42c2.26.26,4.66.78,6.37,2.43C41.58,355,41.49,359.26,42.6,362.83Z" style="fill:#F62222"></path><path d="M53.92,335.69a.51.51,0,0,0-.17-.21C43.49,322.56,28.25,317,23.16,316.17a.54.54,0,0,0-.61.44.52.52,0,0,0,.44.6c4.82.8,19,5.91,29,17.72a29.05,29.05,0,0,0-23,3.34.54.54,0,0,0-.11.74.53.53,0,0,0,.44.22.57.57,0,0,0,.3-.1,28.1,28.1,0,0,1,23.58-2.77c.4.13,1.05,1.4,1.3,1.75.48.68.94,1.36,1.38,2.06a44.7,44.7,0,0,1,2.4,4.34,45,45,0,0,1,1.95,4.77c.21.63,1,4.51,1.48,4.54a.63.63,0,0,0,.59-.5c.32-1.36-.77-3.53-1.22-4.8a43.3,43.3,0,0,0-2-4.77,47.2,47.2,0,0,0-2.37-4.23c-.43-.67-.87-1.32-1.32-2A12.33,12.33,0,0,1,53.92,335.69Z" style="fill:#fff"></path></g></g><g id="freepik--Gears--inject-139"><g id="freepik--gears--inject-139"><path d="M171.62,42.11h0a.8.8,0,0,0-.87.08L169,43.38l-.4,1.08a2.08,2.08,0,0,0,.49,2,8.26,8.26,0,0,1,.82,1,1.22,1.22,0,0,0,1.68.37l4.2-2.76a.82.82,0,0,1,.85-.09Zm-6.46,15.4c-.59-3.39-2.75-5.09-5.56-4.86a8.23,8.23,0,0,1,.58,2c.93,5.39-2.49,13-7.62,17.06a10.4,10.4,0,0,1-5.38,2.41c1.68,3.61,5.94,4,10.37.47C162.68,70.54,166.09,62.9,165.16,57.51Zm.09-23h0a1.22,1.22,0,0,0-.33-.14l-3.16-.71a1.71,1.71,0,0,0-1.79.83l-3,5.67a2.55,2.55,0,0,1-.66.75h0a2.1,2.1,0,0,1-.5.34l.93,3.09a1.07,1.07,0,0,0,1.49.68,14.68,14.68,0,0,1,1.95-.63,3.28,3.28,0,0,0,1.12-.59A2.4,2.4,0,0,0,162,43l3-5.66a1.72,1.72,0,0,1,1.79-.83l3.17.71a1.05,1.05,0,0,1,.31.12Zm-8.9,54.84a.89.89,0,0,1-.3-.48L155,85.31a1.06,1.06,0,0,0-1.49-.68,14.22,14.22,0,0,1-2,.63,2.29,2.29,0,0,0-.61.26l.14.46a.89.89,0,0,0,.4.54h0Zm-6.06-52a.71.71,0,0,0-.35-.1.9.9,0,0,0-.58.23l-4.74,3.72a1.45,1.45,0,0,0-.18.17l-.13.14a3.6,3.6,0,0,0-.41.75c0,.06,0,.13-.06.18h0a2.44,2.44,0,0,0-.13.77l.29,4.5a3.57,3.57,0,0,1-.74,2.18c-.78.93-1.51,1.91-2.2,2.91a2.43,2.43,0,0,1-1,.81,1.66,1.66,0,0,1-.42.12.65.65,0,0,1-.2,0,1.22,1.22,0,0,1-.27,0l-3-.15H136a1,1,0,0,0-.24,0,1,1,0,0,0-.23,0h0a1.06,1.06,0,0,0-.25.09,2.2,2.2,0,0,0-.44.28,1.82,1.82,0,0,0-.49.62l-2.86,6.42a1.22,1.22,0,0,0,.48,1.54l3.38,1.95a1.53,1.53,0,0,1,.08.87,28.44,28.44,0,0,0-.53,3.06,3.86,3.86,0,0,1-1,2.08l0,0-4.15,3.82a.83.83,0,0,0-.2.22l0,0a1.56,1.56,0,0,0-.16.28,2.43,2.43,0,0,0-.32,1.53l.8,4.57a.94.94,0,0,0,.36.63l5,2.86a.89.89,0,0,1-.35-.61L134,79.45a2.21,2.21,0,0,1,0-.88,2.47,2.47,0,0,1,.66-1.2l4.14-3.81.05,0a3.91,3.91,0,0,0,1-2.08,26.16,26.16,0,0,1,.53-3.06,1.54,1.54,0,0,0-.85-1.7l-2.46-1a1.23,1.23,0,0,1-.64-1.63l2.86-6.41a1.86,1.86,0,0,1,.49-.63,1.9,1.9,0,0,1,1.26-.45l3,.15a2,2,0,0,0,.88-.18,2.34,2.34,0,0,0,1-.8c.69-1,1.43-2,2.2-2.91A3.5,3.5,0,0,0,149,50.6l-.28-4.5a2,2,0,0,1,.11-.78,2.53,2.53,0,0,1,.79-1.23l4.73-3.73a.82.82,0,0,1,.94-.13Zm-7.1,47.82a2.11,2.11,0,0,0-.5-2,7.36,7.36,0,0,1-.81-1,1.23,1.23,0,0,0-1.69-.38l-2.39,1.57-1.74,4.71a1.05,1.05,0,0,0,.42,1.29h0l5,2.88a1,1,0,0,1-.42-1.29Z" style="fill:#F62222"></path><path d="M171.62,42.11h0a.8.8,0,0,0-.87.08L169,43.38l-.4,1.08a2.08,2.08,0,0,0,.49,2,8.26,8.26,0,0,1,.82,1,1.22,1.22,0,0,0,1.68.37l4.2-2.76a.82.82,0,0,1,.85-.09Zm-6.46,15.4c-.59-3.39-2.75-5.09-5.56-4.86a8.23,8.23,0,0,1,.58,2c.93,5.39-2.49,13-7.62,17.06a10.4,10.4,0,0,1-5.38,2.41c1.68,3.61,5.94,4,10.37.47C162.68,70.54,166.09,62.9,165.16,57.51Zm.09-23h0a1.22,1.22,0,0,0-.33-.14l-3.16-.71a1.71,1.71,0,0,0-1.79.83l-3,5.67a2.55,2.55,0,0,1-.66.75h0a2.1,2.1,0,0,1-.5.34l.93,3.09a1.07,1.07,0,0,0,1.49.68,14.68,14.68,0,0,1,1.95-.63,3.28,3.28,0,0,0,1.12-.59A2.4,2.4,0,0,0,162,43l3-5.66a1.72,1.72,0,0,1,1.79-.83l3.17.71a1.05,1.05,0,0,1,.31.12Zm-8.9,54.84a.89.89,0,0,1-.3-.48L155,85.31a1.06,1.06,0,0,0-1.49-.68,14.22,14.22,0,0,1-2,.63,2.29,2.29,0,0,0-.61.26l.14.46a.89.89,0,0,0,.4.54h0Zm-6.06-52a.71.71,0,0,0-.35-.1.9.9,0,0,0-.58.23l-4.74,3.72a1.45,1.45,0,0,0-.18.17l-.13.14a3.6,3.6,0,0,0-.41.75c0,.06,0,.13-.06.18h0a2.44,2.44,0,0,0-.13.77l.29,4.5a3.57,3.57,0,0,1-.74,2.18c-.78.93-1.51,1.91-2.2,2.91a2.43,2.43,0,0,1-1,.81,1.66,1.66,0,0,1-.42.12.65.65,0,0,1-.2,0,1.22,1.22,0,0,1-.27,0l-3-.15H136a1,1,0,0,0-.24,0,1,1,0,0,0-.23,0h0a1.06,1.06,0,0,0-.25.09,2.2,2.2,0,0,0-.44.28,1.82,1.82,0,0,0-.49.62l-2.86,6.42a1.22,1.22,0,0,0,.48,1.54l3.38,1.95a1.53,1.53,0,0,1,.08.87,28.44,28.44,0,0,0-.53,3.06,3.86,3.86,0,0,1-1,2.08l0,0-4.15,3.82a.83.83,0,0,0-.2.22l0,0a1.56,1.56,0,0,0-.16.28,2.43,2.43,0,0,0-.32,1.53l.8,4.57a.94.94,0,0,0,.36.63l5,2.86a.89.89,0,0,1-.35-.61L134,79.45a2.21,2.21,0,0,1,0-.88,2.47,2.47,0,0,1,.66-1.2l4.14-3.81.05,0a3.91,3.91,0,0,0,1-2.08,26.16,26.16,0,0,1,.53-3.06,1.54,1.54,0,0,0-.85-1.7l-2.46-1a1.23,1.23,0,0,1-.64-1.63l2.86-6.41a1.86,1.86,0,0,1,.49-.63,1.9,1.9,0,0,1,1.26-.45l3,.15a2,2,0,0,0,.88-.18,2.34,2.34,0,0,0,1-.8c.69-1,1.43-2,2.2-2.91A3.5,3.5,0,0,0,149,50.6l-.28-4.5a2,2,0,0,1,.11-.78,2.53,2.53,0,0,1,.79-1.23l4.73-3.73a.82.82,0,0,1,.94-.13Zm-7.1,47.82a2.11,2.11,0,0,0-.5-2,7.36,7.36,0,0,1-.81-1,1.23,1.23,0,0,0-1.69-.38l-2.39,1.57-1.74,4.71a1.05,1.05,0,0,0,.42,1.29h0l5,2.88a1,1,0,0,1-.42-1.29Z" style="fill:#fff;opacity:0.7000000000000001"></path><path d="M171.62,42.11h0a.8.8,0,0,0-.87.08L169,43.38l-.4,1.08a2.08,2.08,0,0,0,.49,2,8.26,8.26,0,0,1,.82,1,1.22,1.22,0,0,0,1.68.37l4.2-2.76a.82.82,0,0,1,.85-.09Zm-6.46,15.4c-.59-3.39-2.75-5.09-5.56-4.86a8.23,8.23,0,0,1,.58,2c.93,5.39-2.49,13-7.62,17.06a10.4,10.4,0,0,1-5.38,2.41c1.68,3.61,5.94,4,10.37.47C162.68,70.54,166.09,62.9,165.16,57.51Zm.09-23h0a1.22,1.22,0,0,0-.33-.14l-3.16-.71a1.71,1.71,0,0,0-1.79.83l-3,5.67a2.55,2.55,0,0,1-.66.75h0a2.1,2.1,0,0,1-.5.34l.93,3.09a1.07,1.07,0,0,0,1.49.68,14.68,14.68,0,0,1,1.95-.63,3.28,3.28,0,0,0,1.12-.59A2.4,2.4,0,0,0,162,43l3-5.66a1.72,1.72,0,0,1,1.79-.83l3.17.71a1.05,1.05,0,0,1,.31.12Zm-8.9,54.84a.89.89,0,0,1-.3-.48L155,85.31a1.06,1.06,0,0,0-1.49-.68,14.22,14.22,0,0,1-2,.63,2.29,2.29,0,0,0-.61.26l.14.46a.89.89,0,0,0,.4.54h0Zm-6.06-52a.71.71,0,0,0-.35-.1.9.9,0,0,0-.58.23l-4.74,3.72a1.45,1.45,0,0,0-.18.17l-.13.14a3.6,3.6,0,0,0-.41.75c0,.06,0,.13-.06.18h0a2.44,2.44,0,0,0-.13.77l.29,4.5a3.57,3.57,0,0,1-.74,2.18c-.78.93-1.51,1.91-2.2,2.91a2.43,2.43,0,0,1-1,.81,1.66,1.66,0,0,1-.42.12.65.65,0,0,1-.2,0,1.22,1.22,0,0,1-.27,0l-3-.15H136a1,1,0,0,0-.24,0,1,1,0,0,0-.23,0h0a1.06,1.06,0,0,0-.25.09,2.2,2.2,0,0,0-.44.28,1.82,1.82,0,0,0-.49.62l-2.86,6.42a1.22,1.22,0,0,0,.48,1.54l3.38,1.95a1.53,1.53,0,0,1,.08.87,28.44,28.44,0,0,0-.53,3.06,3.86,3.86,0,0,1-1,2.08l0,0-4.15,3.82a.83.83,0,0,0-.2.22l0,0a1.56,1.56,0,0,0-.16.28,2.43,2.43,0,0,0-.32,1.53l.8,4.57a.94.94,0,0,0,.36.63l5,2.86a.89.89,0,0,1-.35-.61L134,79.45a2.21,2.21,0,0,1,0-.88,2.47,2.47,0,0,1,.66-1.2l4.14-3.81.05,0a3.91,3.91,0,0,0,1-2.08,26.16,26.16,0,0,1,.53-3.06,1.54,1.54,0,0,0-.85-1.7l-2.46-1a1.23,1.23,0,0,1-.64-1.63l2.86-6.41a1.86,1.86,0,0,1,.49-.63,1.9,1.9,0,0,1,1.26-.45l3,.15a2,2,0,0,0,.88-.18,2.34,2.34,0,0,0,1-.8c.69-1,1.43-2,2.2-2.91A3.5,3.5,0,0,0,149,50.6l-.28-4.5a2,2,0,0,1,.11-.78,2.53,2.53,0,0,1,.79-1.23l4.73-3.73a.82.82,0,0,1,.94-.13Zm-7.1,47.82a2.11,2.11,0,0,0-.5-2,7.36,7.36,0,0,1-.81-1,1.23,1.23,0,0,0-1.69-.38l-2.39,1.57-1.74,4.71a1.05,1.05,0,0,0,.42,1.29h0l5,2.88a1,1,0,0,1-.42-1.29Z" style="opacity:0.05"></path><path d="M138.81,73.56l-4.14,3.81a2.47,2.47,0,0,0-.66,1.2l-5-2.87a2.9,2.9,0,0,1,.25-.66,1.56,1.56,0,0,1,.16-.28l0,0a.83.83,0,0,1,.2-.22l4.15-3.82Z" style="fill:#F62222"></path><path d="M145,56.49a2,2,0,0,1-.88.18l-3-.15a1.9,1.9,0,0,0-1.26.45l-5-2.87a2.2,2.2,0,0,1,.44-.28,1.06,1.06,0,0,1,.25-.09h0a1,1,0,0,1,.23,0,1,1,0,0,1,.24,0h.08l3,.15a1.22,1.22,0,0,0,.27,0l.2,0a2.67,2.67,0,0,0,.4-.13h0Z" style="fill:#F62222"></path><path d="M176.59,45a.78.78,0,0,0-.85.1l-4.2,2.76a1.22,1.22,0,0,1-1.68-.39,8.91,8.91,0,0,0-.82-1,2.08,2.08,0,0,1-.49-2l.4-1.06,1.8-1.19a.8.8,0,0,1,.87-.08h0Z" style="fill:#F62222"></path><path d="M170.22,37.36a1.05,1.05,0,0,0-.31-.12l-3.17-.71a1.72,1.72,0,0,0-1.79.83L162,43a2.4,2.4,0,0,1-.67.77l-5-2.89a2.55,2.55,0,0,0,.66-.75l3-5.67a1.71,1.71,0,0,1,1.79-.83l3.16.71a1.22,1.22,0,0,1,.33.14h0Z" style="fill:#F62222"></path><path d="M155.28,40.23a.82.82,0,0,0-.94.13l-4.73,3.73a2.53,2.53,0,0,0-.79,1.23l-5-2.87c0-.05,0-.12.06-.18a3.6,3.6,0,0,1,.41-.75l.13-.14a1.45,1.45,0,0,1,.18-.17l4.74-3.72a.9.9,0,0,1,.58-.23.71.71,0,0,1,.35.1Z" style="fill:#F62222"></path><path d="M138.81,73.56l-4.14,3.81a2.47,2.47,0,0,0-.66,1.2l-5-2.87a2.9,2.9,0,0,1,.25-.66,1.56,1.56,0,0,1,.16-.28l0,0a.83.83,0,0,1,.2-.22l4.15-3.82Z" style="fill:#fff;opacity:0.9"></path><path d="M145,56.49a2,2,0,0,1-.88.18l-3-.15a1.9,1.9,0,0,0-1.26.45l-5-2.87a2.2,2.2,0,0,1,.44-.28,1.06,1.06,0,0,1,.25-.09h0a1,1,0,0,1,.23,0,1,1,0,0,1,.24,0h.08l3,.15a1.22,1.22,0,0,0,.27,0l.2,0a2.67,2.67,0,0,0,.4-.13h0Z" style="fill:#fff;opacity:0.9"></path><path d="M176.59,45a.78.78,0,0,0-.85.1l-4.2,2.76a1.22,1.22,0,0,1-1.68-.39,8.91,8.91,0,0,0-.82-1,2.08,2.08,0,0,1-.49-2l.4-1.06,1.8-1.19a.8.8,0,0,1,.87-.08h0Z" style="fill:#fff;opacity:0.9"></path><path d="M170.22,37.36a1.05,1.05,0,0,0-.31-.12l-3.17-.71a1.72,1.72,0,0,0-1.79.83L162,43a2.4,2.4,0,0,1-.67.77l-5-2.89a2.55,2.55,0,0,0,.66-.75l3-5.67a1.71,1.71,0,0,1,1.79-.83l3.16.71a1.22,1.22,0,0,1,.33.14h0Z" style="fill:#fff;opacity:0.9"></path><path d="M155.28,40.23a.82.82,0,0,0-.94.13l-4.73,3.73a2.53,2.53,0,0,0-.79,1.23l-5-2.87c0-.05,0-.12.06-.18a3.6,3.6,0,0,1,.41-.75l.13-.14a1.45,1.45,0,0,1,.18-.17l4.74-3.72a.9.9,0,0,1,.58-.23.71.71,0,0,1,.35.1Z" style="fill:#fff;opacity:0.9"></path><path d="M177.77,50.19,177,45.62a.75.75,0,0,0-1.25-.54l-4.19,2.76a1.22,1.22,0,0,1-1.68-.38,8.2,8.2,0,0,0-.82-1,2.07,2.07,0,0,1-.49-2l2.14-5.79a1,1,0,0,0-.78-1.43l-3.16-.71a1.7,1.7,0,0,0-1.79.83L162,43a3.12,3.12,0,0,1-1.79,1.35,15.83,15.83,0,0,0-1.95.64,1.07,1.07,0,0,1-1.49-.68l-1.07-3.54a.8.8,0,0,0-1.34-.43l-4.73,3.73a2.61,2.61,0,0,0-.9,2l.28,4.5a3.57,3.57,0,0,1-.74,2.18c-.77.93-1.51,1.9-2.2,2.91a2.43,2.43,0,0,1-1.92,1l-3-.15a2,2,0,0,0-1.74,1.07L136.47,64a1.22,1.22,0,0,0,.64,1.62l2.46,1.05a1.52,1.52,0,0,1,.84,1.7,28,28,0,0,0-.52,3.06,3.84,3.84,0,0,1-1,2.08l-4.2,3.86a2.53,2.53,0,0,0-.7,2.06l.79,4.58a.75.75,0,0,0,1.25.54l4.19-2.76a1.21,1.21,0,0,1,1.68.38,9.11,9.11,0,0,0,.82,1,2.09,2.09,0,0,1,.49,2L141,91a1.07,1.07,0,0,0,.79,1.44l3.16.71a1.71,1.71,0,0,0,1.79-.83l3-5.67a3.16,3.16,0,0,1,1.79-1.35,14.3,14.3,0,0,0,2-.64,1.07,1.07,0,0,1,1.49.68l1.07,3.55a.79.79,0,0,0,1.34.42l4.73-3.72a2.61,2.61,0,0,0,.9-2l-.28-4.5a3.62,3.62,0,0,1,.74-2.19,35.21,35.21,0,0,0,2.2-2.91,2.44,2.44,0,0,1,1.93-1l3,.15A2,2,0,0,0,172.4,72l2.86-6.41a1.23,1.23,0,0,0-.64-1.63l-2.46-1a1.51,1.51,0,0,1-.84-1.69c.23-1,.41-2.06.53-3.06a3.79,3.79,0,0,1,1-2.08l4.2-3.86A2.54,2.54,0,0,0,177.77,50.19ZM157.55,74.58c-5.14,4-10.05,2.94-11-2.45s2.48-13,7.62-17.07,10-2.94,11,2.45S162.68,70.54,157.55,74.58Z" style="fill:#F62222"></path><path d="M177.77,50.19,177,45.62a.75.75,0,0,0-1.25-.54l-4.19,2.76a1.22,1.22,0,0,1-1.68-.38,8.2,8.2,0,0,0-.82-1,2.07,2.07,0,0,1-.49-2l2.14-5.79a1,1,0,0,0-.78-1.43l-3.16-.71a1.7,1.7,0,0,0-1.79.83L162,43a3.12,3.12,0,0,1-1.79,1.35,15.83,15.83,0,0,0-1.95.64,1.07,1.07,0,0,1-1.49-.68l-1.07-3.54a.8.8,0,0,0-1.34-.43l-4.73,3.73a2.61,2.61,0,0,0-.9,2l.28,4.5a3.57,3.57,0,0,1-.74,2.18c-.77.93-1.51,1.9-2.2,2.91a2.43,2.43,0,0,1-1.92,1l-3-.15a2,2,0,0,0-1.74,1.07L136.47,64a1.22,1.22,0,0,0,.64,1.62l2.46,1.05a1.52,1.52,0,0,1,.84,1.7,28,28,0,0,0-.52,3.06,3.84,3.84,0,0,1-1,2.08l-4.2,3.86a2.53,2.53,0,0,0-.7,2.06l.79,4.58a.75.75,0,0,0,1.25.54l4.19-2.76a1.21,1.21,0,0,1,1.68.38,9.11,9.11,0,0,0,.82,1,2.09,2.09,0,0,1,.49,2L141,91a1.07,1.07,0,0,0,.79,1.44l3.16.71a1.71,1.71,0,0,0,1.79-.83l3-5.67a3.16,3.16,0,0,1,1.79-1.35,14.3,14.3,0,0,0,2-.64,1.07,1.07,0,0,1,1.49.68l1.07,3.55a.79.79,0,0,0,1.34.42l4.73-3.72a2.61,2.61,0,0,0,.9-2l-.28-4.5a3.62,3.62,0,0,1,.74-2.19,35.21,35.21,0,0,0,2.2-2.91,2.44,2.44,0,0,1,1.93-1l3,.15A2,2,0,0,0,172.4,72l2.86-6.41a1.23,1.23,0,0,0-.64-1.63l-2.46-1a1.51,1.51,0,0,1-.84-1.69c.23-1,.41-2.06.53-3.06a3.79,3.79,0,0,1,1-2.08l4.2-3.86A2.54,2.54,0,0,0,177.77,50.19ZM157.55,74.58c-5.14,4-10.05,2.94-11-2.45s2.48-13,7.62-17.07,10-2.94,11,2.45S162.68,70.54,157.55,74.58Z" style="fill:#fff;opacity:0.75"></path><path d="M111.74,49.77h0a1.27,1.27,0,0,0-1.36.12l-2.81,1.85L107,53.43a3.25,3.25,0,0,0,.77,3.12A14.32,14.32,0,0,1,109,58.12a1.9,1.9,0,0,0,2.63.58l6.55-4.31a1.27,1.27,0,0,1,1.33-.14Zm-10.08,24c-.92-5.3-4.3-8-8.69-7.6a13.48,13.48,0,0,1,.91,3.11C95.33,77.75,90,89.68,82,96a16.25,16.25,0,0,1-8.4,3.75c2.63,5.65,9.28,6.18,16.19.74C97.79,94.18,103.11,82.24,101.66,73.82Zm.14-36h0a1.62,1.62,0,0,0-.52-.21l-4.93-1.11a2.68,2.68,0,0,0-2.8,1.3L88.91,46.7a3.93,3.93,0,0,1-1,1.18h0a4,4,0,0,1-.79.53l1.45,4.83a1.68,1.68,0,0,0,2.33,1.06,25,25,0,0,1,3-1,5,5,0,0,0,1.76-.92,3.89,3.89,0,0,0,1-1.19l4.63-8.85a2.71,2.71,0,0,1,2.8-1.3l5,1.12a1.78,1.78,0,0,1,.49.18ZM87.9,123.52a1.35,1.35,0,0,1-.47-.75l-1.67-5.54a1.67,1.67,0,0,0-2.33-1.06,24,24,0,0,1-3,1,3.7,3.7,0,0,0-1,.4l.22.71a1.45,1.45,0,0,0,.63.86h0ZM78.43,42.34a1.14,1.14,0,0,0-.54-.14,1.4,1.4,0,0,0-.91.35l-7.4,5.81a1.86,1.86,0,0,0-.29.27,1,1,0,0,0-.19.22A4.9,4.9,0,0,0,68.45,50c0,.09-.06.19-.09.28h0a3.25,3.25,0,0,0-.19,1.19l.44,7a5.65,5.65,0,0,1-1.15,3.41c-1.22,1.45-2.36,3-3.43,4.54a3.76,3.76,0,0,1-1.63,1.26,3.19,3.19,0,0,1-.65.19,1.18,1.18,0,0,1-.31,0A1.59,1.59,0,0,1,61,68l-4.75-.23h-.12a1.72,1.72,0,0,0-.39,0,2.41,2.41,0,0,0-.35.07s0,0,0,0a3.12,3.12,0,0,0-.39.15,3.48,3.48,0,0,0-.69.43,3,3,0,0,0-.76,1l-4.47,10a1.91,1.91,0,0,0,.75,2.41l5.28,3a2.39,2.39,0,0,1,.12,1.37,46,46,0,0,0-.83,4.78,6,6,0,0,1-1.59,3.25l-.08.07-6.48,5.95a2.15,2.15,0,0,0-.32.35l0,.06a1.59,1.59,0,0,0-.26.43,3.8,3.8,0,0,0-.49,2.4l1.24,7.14a1.38,1.38,0,0,0,.57,1l7.75,4.47a1.38,1.38,0,0,1-.54-.94l-1.23-7.15a3.22,3.22,0,0,1,.08-1.37,3.83,3.83,0,0,1,1-1.87l6.47-6,.08-.07a6,6,0,0,0,1.61-3.25A43.29,43.29,0,0,1,63,90.8a2.39,2.39,0,0,0-1.32-2.66l-3.84-1.63a1.91,1.91,0,0,1-1-2.54l4.47-10a2.71,2.71,0,0,1,.76-1,3,3,0,0,1,2-.71l4.76.23a3,3,0,0,0,1.38-.27A3.74,3.74,0,0,0,71.82,71c1.07-1.57,2.22-3.1,3.43-4.55A5.5,5.5,0,0,0,76.4,63L76,56a3.12,3.12,0,0,1,.18-1.22,4.06,4.06,0,0,1,1.23-1.93L84.76,47a1.28,1.28,0,0,1,1.47-.21ZM67.34,117a3.27,3.27,0,0,0-.78-3.12,13.18,13.18,0,0,1-1.27-1.57,1.9,1.9,0,0,0-2.63-.59l-3.74,2.46-2.72,7.35a1.65,1.65,0,0,0,.66,2h0l7.81,4.5a1.62,1.62,0,0,1-.66-2Z" style="fill:#F62222"></path><path d="M111.74,49.77h0a1.27,1.27,0,0,0-1.36.12l-2.81,1.85L107,53.43a3.25,3.25,0,0,0,.77,3.12A14.32,14.32,0,0,1,109,58.12a1.9,1.9,0,0,0,2.63.58l6.55-4.31a1.27,1.27,0,0,1,1.33-.14Zm-10.08,24c-.92-5.3-4.3-8-8.69-7.6a13.48,13.48,0,0,1,.91,3.11C95.33,77.75,90,89.68,82,96a16.25,16.25,0,0,1-8.4,3.75c2.63,5.65,9.28,6.18,16.19.74C97.79,94.18,103.11,82.24,101.66,73.82Zm.14-36h0a1.62,1.62,0,0,0-.52-.21l-4.93-1.11a2.68,2.68,0,0,0-2.8,1.3L88.91,46.7a3.93,3.93,0,0,1-1,1.18h0a4,4,0,0,1-.79.53l1.45,4.83a1.68,1.68,0,0,0,2.33,1.06,25,25,0,0,1,3-1,5,5,0,0,0,1.76-.92,3.89,3.89,0,0,0,1-1.19l4.63-8.85a2.71,2.71,0,0,1,2.8-1.3l5,1.12a1.78,1.78,0,0,1,.49.18ZM87.9,123.52a1.35,1.35,0,0,1-.47-.75l-1.67-5.54a1.67,1.67,0,0,0-2.33-1.06,24,24,0,0,1-3,1,3.7,3.7,0,0,0-1,.4l.22.71a1.45,1.45,0,0,0,.63.86h0ZM78.43,42.34a1.14,1.14,0,0,0-.54-.14,1.4,1.4,0,0,0-.91.35l-7.4,5.81a1.86,1.86,0,0,0-.29.27,1,1,0,0,0-.19.22A4.9,4.9,0,0,0,68.45,50c0,.09-.06.19-.09.28h0a3.25,3.25,0,0,0-.19,1.19l.44,7a5.65,5.65,0,0,1-1.15,3.41c-1.22,1.45-2.36,3-3.43,4.54a3.76,3.76,0,0,1-1.63,1.26,3.19,3.19,0,0,1-.65.19,1.18,1.18,0,0,1-.31,0A1.59,1.59,0,0,1,61,68l-4.75-.23h-.12a1.72,1.72,0,0,0-.39,0,2.41,2.41,0,0,0-.35.07s0,0,0,0a3.12,3.12,0,0,0-.39.15,3.48,3.48,0,0,0-.69.43,3,3,0,0,0-.76,1l-4.47,10a1.91,1.91,0,0,0,.75,2.41l5.28,3a2.39,2.39,0,0,1,.12,1.37,46,46,0,0,0-.83,4.78,6,6,0,0,1-1.59,3.25l-.08.07-6.48,5.95a2.15,2.15,0,0,0-.32.35l0,.06a1.59,1.59,0,0,0-.26.43,3.8,3.8,0,0,0-.49,2.4l1.24,7.14a1.38,1.38,0,0,0,.57,1l7.75,4.47a1.38,1.38,0,0,1-.54-.94l-1.23-7.15a3.22,3.22,0,0,1,.08-1.37,3.83,3.83,0,0,1,1-1.87l6.47-6,.08-.07a6,6,0,0,0,1.61-3.25A43.29,43.29,0,0,1,63,90.8a2.39,2.39,0,0,0-1.32-2.66l-3.84-1.63a1.91,1.91,0,0,1-1-2.54l4.47-10a2.71,2.71,0,0,1,.76-1,3,3,0,0,1,2-.71l4.76.23a3,3,0,0,0,1.38-.27A3.74,3.74,0,0,0,71.82,71c1.07-1.57,2.22-3.1,3.43-4.55A5.5,5.5,0,0,0,76.4,63L76,56a3.12,3.12,0,0,1,.18-1.22,4.06,4.06,0,0,1,1.23-1.93L84.76,47a1.28,1.28,0,0,1,1.47-.21ZM67.34,117a3.27,3.27,0,0,0-.78-3.12,13.18,13.18,0,0,1-1.27-1.57,1.9,1.9,0,0,0-2.63-.59l-3.74,2.46-2.72,7.35a1.65,1.65,0,0,0,.66,2h0l7.81,4.5a1.62,1.62,0,0,1-.66-2Z" style="fill:#fff;opacity:0.7000000000000001"></path><path d="M111.74,49.77h0a1.27,1.27,0,0,0-1.36.12l-2.81,1.85L107,53.43a3.25,3.25,0,0,0,.77,3.12A14.32,14.32,0,0,1,109,58.12a1.9,1.9,0,0,0,2.63.58l6.55-4.31a1.27,1.27,0,0,1,1.33-.14Zm-10.08,24c-.92-5.3-4.3-8-8.69-7.6a13.48,13.48,0,0,1,.91,3.11C95.33,77.75,90,89.68,82,96a16.25,16.25,0,0,1-8.4,3.75c2.63,5.65,9.28,6.18,16.19.74C97.79,94.18,103.11,82.24,101.66,73.82Zm.14-36h0a1.62,1.62,0,0,0-.52-.21l-4.93-1.11a2.68,2.68,0,0,0-2.8,1.3L88.91,46.7a3.93,3.93,0,0,1-1,1.18h0a4,4,0,0,1-.79.53l1.45,4.83a1.68,1.68,0,0,0,2.33,1.06,25,25,0,0,1,3-1,5,5,0,0,0,1.76-.92,3.89,3.89,0,0,0,1-1.19l4.63-8.85a2.71,2.71,0,0,1,2.8-1.3l5,1.12a1.78,1.78,0,0,1,.49.18ZM87.9,123.52a1.35,1.35,0,0,1-.47-.75l-1.67-5.54a1.67,1.67,0,0,0-2.33-1.06,24,24,0,0,1-3,1,3.7,3.7,0,0,0-1,.4l.22.71a1.45,1.45,0,0,0,.63.86h0ZM78.43,42.34a1.14,1.14,0,0,0-.54-.14,1.4,1.4,0,0,0-.91.35l-7.4,5.81a1.86,1.86,0,0,0-.29.27,1,1,0,0,0-.19.22A4.9,4.9,0,0,0,68.45,50c0,.09-.06.19-.09.28h0a3.25,3.25,0,0,0-.19,1.19l.44,7a5.65,5.65,0,0,1-1.15,3.41c-1.22,1.45-2.36,3-3.43,4.54a3.76,3.76,0,0,1-1.63,1.26,3.19,3.19,0,0,1-.65.19,1.18,1.18,0,0,1-.31,0A1.59,1.59,0,0,1,61,68l-4.75-.23h-.12a1.72,1.72,0,0,0-.39,0,2.41,2.41,0,0,0-.35.07s0,0,0,0a3.12,3.12,0,0,0-.39.15,3.48,3.48,0,0,0-.69.43,3,3,0,0,0-.76,1l-4.47,10a1.91,1.91,0,0,0,.75,2.41l5.28,3a2.39,2.39,0,0,1,.12,1.37,46,46,0,0,0-.83,4.78,6,6,0,0,1-1.59,3.25l-.08.07-6.48,5.95a2.15,2.15,0,0,0-.32.35l0,.06a1.59,1.59,0,0,0-.26.43,3.8,3.8,0,0,0-.49,2.4l1.24,7.14a1.38,1.38,0,0,0,.57,1l7.75,4.47a1.38,1.38,0,0,1-.54-.94l-1.23-7.15a3.22,3.22,0,0,1,.08-1.37,3.83,3.83,0,0,1,1-1.87l6.47-6,.08-.07a6,6,0,0,0,1.61-3.25A43.29,43.29,0,0,1,63,90.8a2.39,2.39,0,0,0-1.32-2.66l-3.84-1.63a1.91,1.91,0,0,1-1-2.54l4.47-10a2.71,2.71,0,0,1,.76-1,3,3,0,0,1,2-.71l4.76.23a3,3,0,0,0,1.38-.27A3.74,3.74,0,0,0,71.82,71c1.07-1.57,2.22-3.1,3.43-4.55A5.5,5.5,0,0,0,76.4,63L76,56a3.12,3.12,0,0,1,.18-1.22,4.06,4.06,0,0,1,1.23-1.93L84.76,47a1.28,1.28,0,0,1,1.47-.21ZM67.34,117a3.27,3.27,0,0,0-.78-3.12,13.18,13.18,0,0,1-1.27-1.57,1.9,1.9,0,0,0-2.63-.59l-3.74,2.46-2.72,7.35a1.65,1.65,0,0,0,.66,2h0l7.81,4.5a1.62,1.62,0,0,1-.66-2Z" style="opacity:0.05"></path><path d="M60.5,98.89l-6.47,6a3.83,3.83,0,0,0-1,1.87l-7.77-4.48a4.64,4.64,0,0,1,.39-1,1.59,1.59,0,0,1,.26-.43l0-.06a2.15,2.15,0,0,1,.32-.35l6.48-5.95Z" style="fill:#F62222"></path><path d="M70.19,72.23a3,3,0,0,1-1.38.27l-4.76-.23a3,3,0,0,0-2,.71L54.3,68.49a3.48,3.48,0,0,1,.69-.43,3.12,3.12,0,0,1,.39-.15s0,0,0,0a2.41,2.41,0,0,1,.35-.07,1.72,1.72,0,0,1,.39,0h.12L61,68a1.59,1.59,0,0,0,.43,0,1.81,1.81,0,0,0,.31,0c.21-.05.41-.13.62-.2h0Z" style="fill:#F62222"></path><path d="M119.51,54.24a1.24,1.24,0,0,0-1.33.16l-6.55,4.31a1.91,1.91,0,0,1-2.63-.6,13.14,13.14,0,0,0-1.28-1.56,3.25,3.25,0,0,1-.77-3.12l.62-1.67,2.81-1.86a1.27,1.27,0,0,1,1.36-.12v0Z" style="fill:#F62222"></path><path d="M109.57,42.34a1.78,1.78,0,0,0-.49-.18l-5-1.12a2.71,2.71,0,0,0-2.8,1.3L96.7,51.19a3.89,3.89,0,0,1-1,1.19l-7.78-4.5a3.93,3.93,0,0,0,1-1.18l4.64-8.85a2.68,2.68,0,0,1,2.8-1.3l4.93,1.11a1.62,1.62,0,0,1,.52.21h0Z" style="fill:#F62222"></path><path d="M86.23,46.83a1.28,1.28,0,0,0-1.47.21l-7.39,5.81a4.06,4.06,0,0,0-1.23,1.93L68.36,50.3c0-.09.07-.19.09-.28a4.9,4.9,0,0,1,.65-1.17,1,1,0,0,1,.19-.22,1.86,1.86,0,0,1,.29-.27L77,42.55a1.4,1.4,0,0,1,.91-.35,1.14,1.14,0,0,1,.54.14Z" style="fill:#F62222"></path><path d="M60.5,98.89l-6.47,6a3.83,3.83,0,0,0-1,1.87l-7.77-4.48a4.64,4.64,0,0,1,.39-1,1.59,1.59,0,0,1,.26-.43l0-.06a2.15,2.15,0,0,1,.32-.35l6.48-5.95Z" style="fill:#fff;opacity:0.9"></path><path d="M70.19,72.23a3,3,0,0,1-1.38.27l-4.76-.23a3,3,0,0,0-2,.71L54.3,68.49a3.48,3.48,0,0,1,.69-.43,3.12,3.12,0,0,1,.39-.15s0,0,0,0a2.41,2.41,0,0,1,.35-.07,1.72,1.72,0,0,1,.39,0h.12L61,68a1.59,1.59,0,0,0,.43,0,1.81,1.81,0,0,0,.31,0c.21-.05.41-.13.62-.2h0Z" style="fill:#fff;opacity:0.9"></path><path d="M119.51,54.24a1.24,1.24,0,0,0-1.33.16l-6.55,4.31a1.91,1.91,0,0,1-2.63-.6,13.14,13.14,0,0,0-1.28-1.56,3.25,3.25,0,0,1-.77-3.12l.62-1.67,2.81-1.86a1.27,1.27,0,0,1,1.36-.12v0Z" style="fill:#fff;opacity:0.9"></path><path d="M109.57,42.34a1.78,1.78,0,0,0-.49-.18l-5-1.12a2.71,2.71,0,0,0-2.8,1.3L96.7,51.19a3.89,3.89,0,0,1-1,1.19l-7.78-4.5a3.93,3.93,0,0,0,1-1.18l4.64-8.85a2.68,2.68,0,0,1,2.8-1.3l4.93,1.11a1.62,1.62,0,0,1,.52.21h0Z" style="fill:#fff;opacity:0.9"></path><path d="M86.23,46.83a1.28,1.28,0,0,0-1.47.21l-7.39,5.81a4.06,4.06,0,0,0-1.23,1.93L68.36,50.3c0-.09.07-.19.09-.28a4.9,4.9,0,0,1,.65-1.17,1,1,0,0,1,.19-.22,1.86,1.86,0,0,1,.29-.27L77,42.55a1.4,1.4,0,0,1,.91-.35,1.14,1.14,0,0,1,.54.14Z" style="fill:#fff;opacity:0.9"></path><path d="M121.36,62.39l-1.23-7.15a1.18,1.18,0,0,0-1.95-.84l-6.55,4.31a1.9,1.9,0,0,1-2.63-.6,14,14,0,0,0-1.28-1.56,3.25,3.25,0,0,1-.77-3.12l3.34-9a1.65,1.65,0,0,0-1.22-2.25l-4.93-1.1a2.68,2.68,0,0,0-2.8,1.29L96.7,51.19a4.9,4.9,0,0,1-2.81,2.11,23.42,23.42,0,0,0-3,1,1.68,1.68,0,0,1-2.33-1.06L86.85,47.7A1.23,1.23,0,0,0,84.76,47l-7.39,5.81A4.14,4.14,0,0,0,76,56l.44,7a5.52,5.52,0,0,1-1.15,3.4c-1.21,1.45-2.36,3-3.43,4.55a3.86,3.86,0,0,1-3,1.53l-4.76-.24A3.06,3.06,0,0,0,61.32,74L56.85,84a1.91,1.91,0,0,0,1,2.54l3.84,1.63A2.39,2.39,0,0,1,63,90.79a43.53,43.53,0,0,0-.83,4.78,5.93,5.93,0,0,1-1.6,3.25l-6.55,6a4,4,0,0,0-1.1,3.23l1.23,7.14a1.18,1.18,0,0,0,2,.85l6.55-4.31a1.9,1.9,0,0,1,2.63.59,13.18,13.18,0,0,0,1.27,1.57,3.25,3.25,0,0,1,.77,3.12l-3.34,9a1.65,1.65,0,0,0,1.22,2.24l4.94,1.11a2.68,2.68,0,0,0,2.8-1.3l4.64-8.84a4.84,4.84,0,0,1,2.8-2.11,22.54,22.54,0,0,0,3-1,1.69,1.69,0,0,1,2.34,1.07l1.67,5.54a1.23,1.23,0,0,0,2.08.66l7.4-5.82a4.11,4.11,0,0,0,1.4-3.13l-.44-7A5.7,5.7,0,0,1,99,104c1.22-1.45,2.36-3,3.44-4.54a3.81,3.81,0,0,1,3-1.53l4.75.24A3.05,3.05,0,0,0,113,96.52l4.47-10a1.9,1.9,0,0,0-1-2.54l-3.84-1.64a2.37,2.37,0,0,1-1.32-2.65,43.46,43.46,0,0,0,.82-4.78,5.93,5.93,0,0,1,1.6-3.24l6.56-6A4,4,0,0,0,121.36,62.39ZM89.77,100.48c-8,6.3-15.69,4.59-17.14-3.83S76.5,76.29,84.52,70s15.69-4.59,17.14,3.83S97.79,94.18,89.77,100.48Z" style="fill:#F62222"></path><path d="M121.36,62.39l-1.23-7.15a1.18,1.18,0,0,0-1.95-.84l-6.55,4.31a1.9,1.9,0,0,1-2.63-.6,14,14,0,0,0-1.28-1.56,3.25,3.25,0,0,1-.77-3.12l3.34-9a1.65,1.65,0,0,0-1.22-2.25l-4.93-1.1a2.68,2.68,0,0,0-2.8,1.29L96.7,51.19a4.9,4.9,0,0,1-2.81,2.11,23.42,23.42,0,0,0-3,1,1.68,1.68,0,0,1-2.33-1.06L86.85,47.7A1.23,1.23,0,0,0,84.76,47l-7.39,5.81A4.14,4.14,0,0,0,76,56l.44,7a5.52,5.52,0,0,1-1.15,3.4c-1.21,1.45-2.36,3-3.43,4.55a3.86,3.86,0,0,1-3,1.53l-4.76-.24A3.06,3.06,0,0,0,61.32,74L56.85,84a1.91,1.91,0,0,0,1,2.54l3.84,1.63A2.39,2.39,0,0,1,63,90.79a43.53,43.53,0,0,0-.83,4.78,5.93,5.93,0,0,1-1.6,3.25l-6.55,6a4,4,0,0,0-1.1,3.23l1.23,7.14a1.18,1.18,0,0,0,2,.85l6.55-4.31a1.9,1.9,0,0,1,2.63.59,13.18,13.18,0,0,0,1.27,1.57,3.25,3.25,0,0,1,.77,3.12l-3.34,9a1.65,1.65,0,0,0,1.22,2.24l4.94,1.11a2.68,2.68,0,0,0,2.8-1.3l4.64-8.84a4.84,4.84,0,0,1,2.8-2.11,22.54,22.54,0,0,0,3-1,1.69,1.69,0,0,1,2.34,1.07l1.67,5.54a1.23,1.23,0,0,0,2.08.66l7.4-5.82a4.11,4.11,0,0,0,1.4-3.13l-.44-7A5.7,5.7,0,0,1,99,104c1.22-1.45,2.36-3,3.44-4.54a3.81,3.81,0,0,1,3-1.53l4.75.24A3.05,3.05,0,0,0,113,96.52l4.47-10a1.9,1.9,0,0,0-1-2.54l-3.84-1.64a2.37,2.37,0,0,1-1.32-2.65,43.46,43.46,0,0,0,.82-4.78,5.93,5.93,0,0,1,1.6-3.24l6.56-6A4,4,0,0,0,121.36,62.39ZM89.77,100.48c-8,6.3-15.69,4.59-17.14-3.83S76.5,76.29,84.52,70s15.69-4.59,17.14,3.83S97.79,94.18,89.77,100.48Z" style="fill:#fff;opacity:0.75"></path></g></g><g id="freepik--Device--inject-139"><g id="freepik--Laptop--inject-139"><path d="M62.77,363.91c0,3.5,2.62,7.85,5.85,9.71l127.26,73.49a12.88,12.88,0,0,0,11.69,0l224.1-129.38c3.23-1.87,5.85-6.21,5.85-9.71s-2.62-7.84-5.85-9.71L304.41,224.82a12.94,12.94,0,0,0-11.69,0L68.61,354.21C65.39,356.07,62.77,360.42,62.77,363.91Z" style="fill:#F62222"></path><path d="M437.52,308c0,3.5-2.62,7.84-5.84,9.71L207.57,447.12a12.06,12.06,0,0,1-5.84,1.39V435.85a12,12,0,0,0,5.84-1.4L431.68,305.07c2.82-1.63,3.18-4.15,1.06-6C435.45,301.17,437.52,304.92,437.52,308Z" style="opacity:0.5"></path><path d="M68.61,361l127.27,73.49a12.94,12.94,0,0,0,11.69,0l224.1-129.39c3.23-1.86,3.23-4.88,0-6.75L304.41,224.82a12.94,12.94,0,0,0-11.69,0L68.61,354.21C65.39,356.07,65.39,359.09,68.61,361Z" style="opacity:0.30000000000000004"></path><path d="M201.73,435.86v12.65a12,12,0,0,1-5.85-1.39L68.61,373.62c-3.22-1.86-5.84-6.21-5.84-9.7,0-3.29,2.31-7.31,5.25-9.33-2.62,1.87-2.42,4.63.59,6.37l127.27,73.49A11.86,11.86,0,0,0,201.73,435.86Z" style="opacity:0.6000000000000001"></path><path d="M57.29,354.42c-3-1.75-2.87-4.7-2.87-8.43V170.2a12.9,12.9,0,0,1,5.85-10.12L284.37,30.69c3.23-1.86,6.2-.51,9.23,1.24s5,3.25,5,7V214.7a12.89,12.89,0,0,1-5.84,10.12L68.61,354.21C65.39,356.07,60.31,356.16,57.29,354.42Z" style="fill:#F62222"></path><path d="M298.56,38.91c0-3.72-2.62-5.23-5.84-3.38L68.61,164.92a12,12,0,0,0-4.13,4.37l-8.34-4.85h0a12,12,0,0,1,4.14-4.37L284.36,30.69c3.23-1.87,6.21-.52,9.24,1.23S298.56,35.19,298.56,38.91Z" style="opacity:0.30000000000000004"></path><path d="M62.77,175.05V350.83c0,3.73,2.62,5.24,5.84,3.38L292.72,224.82a12.89,12.89,0,0,0,5.84-10.12V38.91c0-3.73-2.61-5.24-5.84-3.37L68.61,164.92A13,13,0,0,0,62.77,175.05Z" style="opacity:0.5"></path><path d="M67.92,354.56c-3.22,1.51-7.81,1.49-10.63-.15-3-1.74-2.86-4.69-2.86-8.42V170.2a11.72,11.72,0,0,1,1.71-5.75l8.34,4.83h0A12,12,0,0,0,62.77,175V350.83C62.77,354.29,65,355.84,67.92,354.56Z" style="opacity:0.6000000000000001"></path><path d="M71.76,171.66,287.82,47c1.94-1.12,3.51-.21,3.51,2V202.43a7.72,7.72,0,0,1-3.51,6.07L71.76,333.21c-1.94,1.12-3.51.21-3.51-2V177.74A7.75,7.75,0,0,1,71.76,171.66Z" style="fill:#fafafa"></path><path d="M84.79,354.55l208-120.09a6.4,6.4,0,0,1,5.84,0l6.05,3.18c1.62.93,1.62,2.44,0,3.37l-208,120.08a6.48,6.48,0,0,1-5.85,0l-6-3.16C83.18,357,83.18,355.48,84.79,354.55Z" style="opacity:0.30000000000000004"></path><path d="M101.11,364.25l208-120.09a5.94,5.94,0,0,1,5.34-.29l54.14,31.26c1.34.77,1.11,2.15-.5,3.08L160.33,398.14a6,6,0,0,1-5.35.3l-54.37-31.11C99.27,366.56,99.49,365.19,101.11,364.25Z" style="fill:#263238;opacity:0.30000000000000004"></path><path d="M279.64,294.11l6.51-3.76c.27-.16.32-.4.09-.53l-5.75-3.32a1,1,0,0,0-.91.06l-6.51,3.76c-.28.16-.32.39-.09.52l5.74,3.32A1,1,0,0,0,279.64,294.11Zm-9.09-12.77L264,285.1c-.27.16-.31.4-.09.53l5.75,3.31a1,1,0,0,0,.91-.05l6.51-3.76c.28-.16.32-.39.09-.52l-5.74-3.32A1,1,0,0,0,270.55,281.34Zm-21,12.15-11,6.36c-.27.16-.31.4-.09.53l5.75,3.32a1,1,0,0,0,.91-.06l11-6.36c.28-.16.32-.4.09-.53l-5.74-3.31A1,1,0,0,0,249.51,293.49ZM261,286.84l-6.52,3.76c-.27.16-.31.39-.09.52l5.75,3.32a1,1,0,0,0,.91-.05l6.51-3.76c.28-.16.32-.4.09-.53l-5.74-3.32A1,1,0,0,0,261,286.84Zm-25.55,14.75L229,305.35c-.28.16-.32.39-.1.52l5.75,3.32a1,1,0,0,0,.91-.05l6.51-3.76c.28-.16.32-.4.09-.53l-5.74-3.31A1,1,0,0,0,235.48,301.59ZM226,307.08l-6.51,3.76c-.28.16-.32.4-.09.53l5.74,3.32a1,1,0,0,0,.91-.06l6.51-3.76c.28-.16.32-.39.1-.52L226.87,307A1,1,0,0,0,226,307.08Zm24.13,14.52,6.52-3.76c.27-.16.31-.4.09-.53L251,314a1,1,0,0,0-.91.06l-6.51,3.76c-.28.16-.32.39-.09.52l5.74,3.32A1,1,0,0,0,250.09,321.6Zm-9.51,5.49,6.51-3.76c.27-.16.31-.39.09-.52l-5.75-3.32a1,1,0,0,0-.91.05L234,323.3c-.28.16-.32.4-.09.53l5.74,3.31A1,1,0,0,0,240.58,327.09Zm-9.52,5.5,6.51-3.76c.28-.16.32-.4.09-.53L231.91,325a1,1,0,0,0-.91.06l-6.51,3.76c-.28.16-.32.39-.09.52l5.74,3.32A1,1,0,0,0,231.06,332.59Zm-9.52,5.49,6.51-3.76c.28-.16.32-.39.09-.52l-5.74-3.32a1,1,0,0,0-.92,0L215,334.29c-.28.16-.32.4-.09.53l5.75,3.32A1,1,0,0,0,221.54,338.08Zm48.58-38.48,6.51-3.76c.28-.16.32-.39.09-.52L271,292a1,1,0,0,0-.91.05l-6.51,3.76c-.28.16-.32.4-.09.53l5.74,3.32A1,1,0,0,0,270.12,299.6Zm-10.51,16.5,14.53-8.39c.28-.16.32-.39.09-.52l-14.78-8.54a1,1,0,0,0-.91.06L251,303c-.28.16-.32.4-.1.53l8.22,4.74c.23.13.19.37-.09.53l-6,3.47c-.28.16-.32.4-.09.53l5.74,3.31A1,1,0,0,0,259.61,316.1Zm-43.17-3.52-6.51,3.76c-.28.16-.32.39-.09.53l5.74,3.31a1,1,0,0,0,.91-.05l6.52-3.76c.27-.16.31-.4.09-.53l-5.75-3.31A1,1,0,0,0,216.44,312.58Zm-9.52,5.49-6.51,3.76c-.28.16-.32.4-.09.53l5.74,3.32a1,1,0,0,0,.91-.05l6.52-3.76c.27-.16.31-.4.09-.53L207.83,318A1.05,1.05,0,0,0,206.92,318.07ZM154,376.61a1,1,0,0,0,.91-.06l6.52-3.76c.27-.16.31-.39.09-.52L155.76,369a1,1,0,0,0-.91.05l-6.51,3.76c-.28.16-.32.4-.09.53ZM130.77,362l-6.51,3.76c-.28.16-.32.4-.09.53l5.74,3.31a1,1,0,0,0,.91-.05l6.52-3.76c.27-.16.31-.39.09-.52L131.68,362A1,1,0,0,0,130.77,362Zm11.68,10.8a1,1,0,0,0,.91-.06l6.52-3.76c.27-.16.31-.39.09-.52l-5.75-3.32a1,1,0,0,0-.91.05L136.8,369c-.28.16-.32.4-.09.53Zm26.5,6,6.51-3.76c.28-.16.32-.4.09-.53l-5.74-3.32a1,1,0,0,0-.91.06l-6.52,3.76c-.27.16-.31.39-.09.52l5.75,3.32A1,1,0,0,0,169,378.88Zm-10.43,5.55a1,1,0,0,0,.91-.06l6.51-3.76c.28-.16.32-.39.09-.52l-5.74-3.32a1,1,0,0,0-.91.05l-6.52,3.76c-.27.16-.31.4-.09.53Zm-18.23-27.89-6.51,3.77c-.28.16-.32.39-.09.52l5.74,3.32a1,1,0,0,0,.91,0l6.51-3.76c.28-.16.32-.4.09-.53l-5.74-3.32A1,1,0,0,0,140.29,356.54Zm47.59-27.47-6.51,3.76c-.28.16-.32.39-.09.52l5.74,3.32a1,1,0,0,0,.92-.05l6.51-3.76c.28-.16.32-.4.09-.53L188.79,329A1,1,0,0,0,187.88,329.07Zm-38.07,22-6.52,3.76c-.27.16-.31.4-.09.53l5.75,3.31a1,1,0,0,0,.91,0l6.51-3.76c.28-.16.32-.4.09-.53L150.72,351A1,1,0,0,0,149.81,351.05Zm47.59-27.48-6.51,3.76c-.28.16-.32.4-.09.53l5.74,3.31a1,1,0,0,0,.91-.05l6.52-3.76c.27-.16.31-.39.09-.52l-5.75-3.32A1,1,0,0,0,197.4,323.57Zm-19,11-6.51,3.76c-.28.16-.32.4-.09.53l5.75,3.31a1,1,0,0,0,.91-.05l6.51-3.76c.28-.16.32-.39.09-.52l-5.74-3.32A1,1,0,0,0,178.36,334.56Zm-9.51,5.5-6.52,3.76c-.27.16-.32.39-.09.52l5.75,3.32a1,1,0,0,0,.91-.05l6.51-3.76c.28-.16.32-.4.09-.53L169.76,340A1,1,0,0,0,168.85,340.06Zm-9.52,5.49-6.52,3.76c-.27.16-.31.4-.09.53l5.75,3.32a1,1,0,0,0,.91-.06l6.51-3.76c.28-.16.32-.39.09-.52l-5.74-3.32A1,1,0,0,0,159.33,345.55Zm43.17,3.53,6.51-3.77c.28-.15.32-.39.09-.52l-5.74-3.32a1,1,0,0,0-.91,0l-6.52,3.76c-.27.16-.31.4-.09.53l5.75,3.32A1.05,1.05,0,0,0,202.5,349.08Zm89.09-79.89L285.08,273c-.28.16-.32.4-.09.53l5.74,3.32a1,1,0,0,0,.91-.06l6.51-3.76c.28-.16.32-.39.1-.52l-5.75-3.32A1,1,0,0,0,291.59,269.19Zm-11.52,6.65-6.52,3.76c-.27.16-.31.4-.09.53l5.75,3.32a1,1,0,0,0,.91-.05l6.51-3.76c.28-.16.32-.4.09-.53L281,275.79A1,1,0,0,0,280.07,275.84Zm21-12.14-6.51,3.76c-.28.16-.32.39-.1.52l5.75,3.32a1,1,0,0,0,.91-.05l6.51-3.76c.28-.16.32-.4.09-.53L302,263.64A1,1,0,0,0,301.11,263.7Zm-53,48.63,6.52-3.76c.27-.16.31-.39.09-.53l-5.75-3.31a1,1,0,0,0-.91,0l-6.51,3.76c-.28.16-.32.39-.09.53l5.74,3.31A1,1,0,0,0,248.07,312.33Zm63.47-54.18a1,1,0,0,0-.91.05L304.11,262c-.27.16-.31.4-.09.53l5.75,3.31a1,1,0,0,0,.91-.05l6.51-3.76c.28-.16.32-.39.09-.53ZM212,343.58l6.51-3.76c.28-.16.32-.4.09-.53L212.88,336a1,1,0,0,0-.91,0l-6.52,3.76c-.27.16-.31.39-.09.52l5.75,3.32A1,1,0,0,0,212,343.58Zm116.73-67.4,6.51-3.76c.28-.16.32-.39.09-.52l-5.74-3.32a1,1,0,0,0-.91.05l-6.52,3.76c-.27.16-.31.4-.09.53l5.75,3.32A1,1,0,0,0,328.75,276.18Zm-18.55.28,6.51-3.76c.28-.16.32-.39.09-.52l-5.75-3.32a1,1,0,0,0-.91.05l-6.51,3.76c-.28.16-.32.4-.09.53l5.74,3.32A1,1,0,0,0,310.2,276.46Zm10.37-13.1a1,1,0,0,0-.91.06l-6.51,3.76c-.28.16-.32.39-.09.52L318.8,271a1,1,0,0,0,.91,0l6.52-3.76c.27-.16.32-.4.09-.53Zm2-1.15,14.78,8.53a1,1,0,0,0,.91-.05l6.51-3.76c.28-.16.32-.4.09-.53l-14.78-8.53a1,1,0,0,0-.91.05l-6.51,3.76C322.39,261.84,322.35,262.08,322.58,262.21Zm-22,12.2-6.51,3.76c-.28.16-.32.39-.09.52l5.75,3.32a1,1,0,0,0,.91-.05l6.51-3.76c.28-.16.32-.4.09-.53l-5.74-3.31A1,1,0,0,0,300.62,274.41ZM229,315.77l-6.51,3.76c-.28.16-.32.4-.09.53l5.74,3.31a1,1,0,0,0,.91-.05l6.52-3.76c.27-.16.31-.39.09-.52l-5.75-3.32A1,1,0,0,0,229,315.77Zm89.34-34a1,1,0,0,0,.91-.05l6.51-3.76c.28-.16.32-.4.09-.53l-5.74-3.31a1,1,0,0,0-.91.05l-6.51,3.76c-.28.16-.32.39-.1.53ZM238.5,310.28,232,314c-.28.16-.32.39-.09.52l5.74,3.32a1,1,0,0,0,.91-.05l6.52-3.76c.27-.16.31-.4.09-.53l-5.75-3.32A1,1,0,0,0,238.5,310.28Zm-75,60.83a1,1,0,0,0,.91-.05l6.52-3.76c.27-.16.31-.4.09-.53l-5.75-3.32a1,1,0,0,0-.91.06l-6.51,3.76c-.28.16-.32.39-.09.52Zm-10.68-11.37-6.51,3.76c-.28.16-.32.39-.09.52l5.74,3.32a1,1,0,0,0,.91,0l6.52-3.76c.27-.16.31-.4.09-.53l-5.75-3.32A1,1,0,0,0,152.83,359.74Zm21.11,5.82,6.52-3.76c.27-.16.31-.39.09-.52L174.8,358a1,1,0,0,0-.91.05l-6.51,3.76c-.28.16-.32.4-.09.53l5.74,3.31A1,1,0,0,0,173.94,365.56Zm9.52-5.49,6.51-3.76c.28-.16.32-.4.1-.53l-5.75-3.32a1,1,0,0,0-.91.06l-6.51,3.76c-.28.16-.32.39-.09.52l5.74,3.32A1,1,0,0,0,183.46,360.07Zm9.52-5.5,6.51-3.76c.28-.16.32-.39.09-.53L193.84,347a1,1,0,0,0-.91,0l-6.52,3.76c-.27.16-.31.4-.09.53l5.75,3.31A1,1,0,0,0,193,354.57Zm-30.63-.33L155.84,358c-.28.16-.32.4-.09.53l5.74,3.31a1,1,0,0,0,.91,0l6.52-3.76c.27-.16.31-.39.09-.52l-5.75-3.32A1,1,0,0,0,162.35,354.24Zm9.52-5.5-6.51,3.77c-.28.16-.32.39-.1.52l5.75,3.32a1,1,0,0,0,.91-.05l6.51-3.76c.28-.16.32-.4.09-.53l-5.74-3.32A1,1,0,0,0,171.87,348.74Zm38.07-22-6.51,3.76c-.28.16-.32.4-.09.53l5.75,3.32a1,1,0,0,0,.91-.06l6.51-3.76c.28-.16.32-.39.09-.52l-5.74-3.32A1,1,0,0,0,209.94,326.76Zm-9.51,5.5L193.91,336c-.27.16-.32.39-.09.52l5.75,3.32a1,1,0,0,0,.91-.05l6.51-3.76c.28-.16.32-.4.09-.53l-5.74-3.31A1,1,0,0,0,200.43,332.26Zm19-11L213,325c-.28.16-.32.39-.09.52l5.74,3.32a1,1,0,0,0,.92-.05l6.51-3.76c.28-.16.32-.4.09-.53l-5.75-3.32A1,1,0,0,0,219.46,321.27Zm-38.07,22L174.87,347c-.27.16-.31.4-.09.53l5.75,3.31a1,1,0,0,0,.91-.05L188,347c.28-.16.32-.4.09-.53l-5.74-3.31A1,1,0,0,0,181.39,343.25Zm9.52-5.5-6.52,3.76c-.27.16-.31.4-.09.53l5.75,3.32a1.05,1.05,0,0,0,.91-.05l6.51-3.77c.28-.16.32-.39.09-.52l-5.74-3.32A1,1,0,0,0,190.91,337.75Zm-12.44,35.63,6.51-3.76c.28-.16.32-.39.09-.52l-5.74-3.32a1,1,0,0,0-.91.05l-6.52,3.76c-.27.16-.31.4-.09.53l5.75,3.31A1,1,0,0,0,178.47,373.38Zm-50.56-2.58-5.75-3.32a1,1,0,0,0-.91.06l-6.51,3.76c-.28.16-.32.39-.09.52l5.74,3.32a1,1,0,0,0,.91-.05l6.52-3.76C128.09,371.17,128.13,370.93,127.91,370.8ZM140.45,374l-5.75-3.31a1,1,0,0,0-.91.05l-10,5.78c-.27.16-.31.4-.09.53l5.75,3.32a1,1,0,0,0,.91-.06l10-5.78C140.64,374.36,140.68,374.12,140.45,374Zm-21-9.81-5.75-3.31a1,1,0,0,0-.91.05l-8,4.63c-.28.16-.32.39-.09.52l5.74,3.32a1,1,0,0,0,.91-.05l8-4.63C119.64,364.55,119.68,364.31,119.45,364.18Zm6.15-3.55a1,1,0,0,0,.91-.05l6.51-3.76c.28-.16.32-.39.09-.52L127.36,353a1,1,0,0,0-.91,0l-6.51,3.76c-.28.16-.32.4-.09.53ZM152,377.76l-5.75-3.31a1,1,0,0,0-.91.05l-12.52,7.23c-.28.16-.32.4-.09.53l5.74,3.31a1,1,0,0,0,.91-.05l12.53-7.23C152.18,378.13,152.22,377.89,152,377.76Zm4.53,7.82-5.75-3.31a1,1,0,0,0-.91.05l-8,4.63c-.27.16-.31.39-.09.52l5.75,3.32a1,1,0,0,0,.91-.05l8-4.63C156.7,386,156.74,385.71,156.52,385.58Zm39.85-65.81a1,1,0,0,0,.91,0l6.51-3.76c.28-.16.32-.39.09-.53l-5.74-3.31a1,1,0,0,0-.91.05l-6.52,3.76c-.27.16-.31.4-.09.53Zm-19,11a1,1,0,0,0,.91-.05l6.52-3.76c.27-.16.31-.39.09-.52l-5.75-3.32a1,1,0,0,0-.91.05l-6.51,3.76c-.28.16-.32.4-.09.53Zm-42.22,24.38a1,1,0,0,0,.91-.05l6.52-3.76c.27-.16.32-.4.09-.53l-5.75-3.32a1,1,0,0,0-.91.06l-6.51,3.76c-.28.16-.32.39-.09.52Zm51.74-29.87a1,1,0,0,0,.91,0l6.51-3.76c.28-.16.32-.4.09-.53l-5.74-3.32a1,1,0,0,0-.91.06l-6.51,3.76c-.28.16-.32.39-.1.52Zm-19,11a1,1,0,0,0,.91-.05l6.52-3.76c.27-.16.31-.4.09-.53l-5.75-3.32a1,1,0,0,0-.91.06l-6.51,3.76c-.28.16-.32.39-.09.52Zm-6,50.07a1,1,0,0,0-.91.05l-10,5.78c-.28.16-.32.4-.09.53l5.74,3.32a1,1,0,0,0,.91-.06l10-5.78c.28-.16.32-.4.09-.53Zm-7.66-42.18a1,1,0,0,0,.91-.06l6.52-3.76c.27-.16.31-.39.09-.52l-5.75-3.32a1,1,0,0,0-.91.05l-6.51,3.76c-.28.16-.32.4-.09.53Zm-9.52,5.49a1,1,0,0,0,.91-.05l6.52-3.76c.27-.16.31-.4.09-.53L146.4,342a1,1,0,0,0-.91.05L139,345.8c-.28.16-.32.4-.09.53Zm193.53-65.13a1,1,0,0,0-.91.05l-16,9.26c-.28.16-.32.39-.09.52l5.74,3.32a1,1,0,0,0,.91-.05l16-9.26c.28-.16.32-.39.09-.52Zm-21,12.15a1,1,0,0,0-.91,0l-6.52,3.76c-.27.16-.31.4-.09.53l5.75,3.31a1,1,0,0,0,.91-.05l6.51-3.76c.28-.16.32-.39.09-.53ZM188,367.89l6.51-3.76c.28-.16.32-.4.09-.53l-5.74-3.32a1,1,0,0,0-.92.06l-6.51,3.76c-.27.16-.32.39-.09.52l5.75,3.32A1,1,0,0,0,188,367.89Zm110.09-60.24a1,1,0,0,0-.91.05l-6.51,3.76c-.28.16-.32.4-.09.53l5.74,3.32a1,1,0,0,0,.91-.06l6.51-3.76c.28-.16.32-.39.1-.52ZM347.68,279a1,1,0,0,0-.91.06l-6.52,3.76c-.27.16-.31.39-.09.52l5.75,3.32a1,1,0,0,0,.91-.05l6.51-3.76c.28-.16.32-.4.09-.53Zm15.26-2.17-14.78-8.54a1,1,0,0,0-.91.05l-6.51,3.76c-.28.16-.32.4-.09.53l14.78,8.53a1,1,0,0,0,.91-.05l6.51-3.76C363.13,277.2,363.17,277,362.94,276.84ZM262.51,328.19a1,1,0,0,0-.91.05l-8,4.63c-.27.16-.32.39-.09.52l5.75,3.32a1,1,0,0,0,.91,0l8-4.63c.28-.16.32-.4.09-.53Zm24.05-13.89a1,1,0,0,0-.91.05l-10,5.79c-.28.16-.32.39-.09.53l5.74,3.31a1,1,0,0,0,.91-.05l10-5.78c.28-.16.32-.4.09-.53Zm-46.09,26.61a1,1,0,0,0-.92.06L186,371.92c-.28.15-.32.39-.09.52l5.74,3.32a1,1,0,0,0,.91-.05l53.61-30.95c.28-.16.32-.4.09-.53ZM183.85,373.6a1,1,0,0,0-.91,0l-8,4.63c-.28.16-.32.39-.09.52l5.74,3.32a1,1,0,0,0,.91-.05l8-4.63c.27-.16.32-.39.09-.52Zm67.64-39.05a1,1,0,0,0-.91.05l-8,4.63c-.28.16-.32.4-.09.53l5.75,3.31a1,1,0,0,0,.91-.05l8-4.63c.28-.16.32-.39.09-.52ZM172.83,380a1,1,0,0,0-.91.05l-8,4.63c-.27.16-.31.4-.09.53l5.75,3.32a1,1,0,0,0,.91-.06l8-4.63c.27-.16.31-.39.09-.52Zm100.7-58.14a1,1,0,0,0-.91.06l-8,4.62c-.27.16-.31.4-.09.53l5.75,3.32a1,1,0,0,0,.91-.06l8-4.62c.27-.16.31-.4.09-.53Zm34.07-19.67a1,1,0,0,0-.91.06L300.17,306c-.27.16-.31.39-.09.52l5.75,3.32a1,1,0,0,0,.91-.05l6.51-3.76c.28-.16.32-.4.09-.53Zm20.67-15.25,6.51-3.76c.28-.16.32-.4.09-.53l-5.75-3.32a1,1,0,0,0-.91.06l-6.51,3.76c-.28.15-.32.39-.09.52l5.75,3.32A1,1,0,0,0,328.27,286.9Zm-39.12,1.71,6.52-3.76c.27-.16.31-.39.09-.52L290,281a1,1,0,0,0-.91.05l-6.51,3.76c-.28.16-.32.4-.09.53l5.74,3.31A1,1,0,0,0,289.15,288.61Zm-25,35.31,19-11c.27-.16.31-.4.09-.53l-5.75-3.31a1,1,0,0,0-.91.05l-19,11c-.27.16-.31.39-.09.53l5.75,3.31A1,1,0,0,0,264.14,323.92Zm53.7-31.48a1,1,0,0,0,.91-.05l6.51-3.76c.28-.16.32-.39.09-.52l-5.74-3.32a1,1,0,0,0-.92,0l-6.51,3.76c-.27.16-.32.4-.09.53Zm-8.13-5.26,6.52-3.76c.27-.16.31-.4.09-.53l-5.75-3.32a1,1,0,0,0-.91.05l-6.51,3.76c-.28.16-.32.4-.09.53l5.74,3.32A1,1,0,0,0,309.71,287.18Zm-55.09,42.24,6.51-3.76c.28-.16.32-.4.09-.53l-5.74-3.32a1,1,0,0,0-.91.05l-6.52,3.77c-.27.15-.31.39-.09.52l5.75,3.32A1,1,0,0,0,254.62,329.42Zm42.17-24.83a1,1,0,0,0,.92,0l6.51-3.76c.28-.16.32-.4.09-.53l-5.75-3.31a1,1,0,0,0-.91.05l-6.51,3.76c-.28.16-.32.39-.09.53ZM207,356.89l6.51-3.76c.27-.16.32-.39.09-.52l-5.75-3.32a1,1,0,0,0-.91,0l-6.51,3.76c-.28.16-.32.4-.09.53l5.74,3.32A1,1,0,0,0,207,356.89Zm9.51-5.49,6.52-3.76c.27-.16.31-.4.09-.53l-5.75-3.31a1,1,0,0,0-.91.05L210,347.61c-.28.16-.32.39-.09.52l5.74,3.32A1,1,0,0,0,216.54,351.4Zm-19,11,6.51-3.76c.28-.16.32-.4.09-.53l-5.74-3.31a1,1,0,0,0-.92,0l-6.51,3.76c-.28.16-.32.39-.09.53l5.75,3.31A1,1,0,0,0,197.51,362.39Zm38.07-22,6.51-3.76c.28-.16.32-.4.1-.53l-5.75-3.32a1,1,0,0,0-.91.06L229,336.62c-.28.16-.32.39-.09.52l5.74,3.32A1,1,0,0,0,235.58,340.41Zm-9.52,5.49,6.52-3.76c.27-.16.31-.39.09-.52l-5.75-3.32a1,1,0,0,0-.91.05l-6.51,3.76c-.28.16-.32.4-.09.53l5.74,3.32A1,1,0,0,0,226.06,345.9Zm19-11,6.51-3.76c.28-.16.32-.39.09-.52L246,327.31a1,1,0,0,0-.91.05l-6.52,3.76c-.27.16-.31.4-.09.53l5.75,3.31A1,1,0,0,0,245.1,334.91Zm52.6-76.07a1,1,0,0,0,.91-.06l6.51-3.76c.28-.16.32-.39.09-.52l-1.52-.89a1,1,0,0,0-.92.06l-6.51,3.76c-.28.16-.32.39-.09.52Zm-47.49,29.85a1,1,0,0,0,.91-.05l6.51-3.76c.28-.16.32-.4.09-.53L252,281a1,1,0,0,0-.91.05l-6.52,3.77c-.27.16-.31.39-.09.52Zm19-11a1,1,0,0,0,.91-.06l6.51-3.76c.28-.16.32-.39.09-.52L271,270a1,1,0,0,0-.91,0l-6.52,3.76c-.27.16-.32.4-.09.53Zm-30.66,17.7a1,1,0,0,0,.91,0l6.51-3.76c.28-.16.32-.4.09-.53l-5.74-3.32a1,1,0,0,0-.92.06l-6.51,3.76c-.28.16-.32.39-.09.52Zm21.14-12.21a1,1,0,0,0,.91-.05l6.51-3.76c.28-.16.32-.4.09-.53l-5.74-3.31a1,1,0,0,0-.91,0l-6.52,3.76c-.27.16-.31.39-.09.53Zm-40.18,23.2a1,1,0,0,0,.91-.05l6.51-3.76c.28-.16.32-.4.09-.53l-5.74-3.32a1,1,0,0,0-.91.06l-6.52,3.76c-.27.16-.31.39-.09.52Zm9.52-5.5a1,1,0,0,0,.91-.05l6.51-3.76c.28-.16.32-.39.09-.52l-5.74-3.32a1,1,0,0,0-.91.05l-6.52,3.76c-.27.16-.31.4-.09.53Zm49.59-31.06a1,1,0,0,0,.91-.06l6.52-3.76c.27-.16.31-.39.09-.52l-1.53-.88a1,1,0,0,0-.91.05l-6.52,3.76c-.27.16-.31.39-.09.52Zm28.56-16.49a1,1,0,0,0,.91-.05l6.51-3.76c.28-.16.32-.4.09-.53l-1.53-.88a1,1,0,0,0-.91,0l-6.51,3.76c-.28.16-.32.4-.09.53Zm12.07,7a1,1,0,0,0,.91-.05l6.51-3.76c.28-.16.32-.4.09-.53l-5.74-3.32a1,1,0,0,0-.91,0l-6.52,3.76c-.27.16-.31.4-.09.53Zm18.49,21.09,6.52-3.76c.27-.16.32-.4.09-.53l-5.75-3.31a1,1,0,0,0-.91.05l-6.51,3.76c-.28.16-.32.4-.09.53l5.74,3.31A1,1,0,0,0,337.78,281.4Zm-49.6-17.07a1,1,0,0,0,.91-.05l6.51-3.76c.28-.16.32-.4.1-.53l-1.53-.88a1,1,0,0,0-.92.05l-6.51,3.76c-.27.16-.32.4-.09.53ZM210,311.89a1,1,0,0,0,.91-.06l6.51-3.76c.28-.16.32-.39.09-.52l-5.74-3.32a1,1,0,0,0-.91,0L204.37,308c-.27.16-.31.4-.09.53Z" style="fill:#F62222"></path><path d="M279.64,294.11l6.51-3.76c.27-.16.32-.4.09-.53l-5.75-3.32a1,1,0,0,0-.91.06l-6.51,3.76c-.28.16-.32.39-.09.52l5.74,3.32A1,1,0,0,0,279.64,294.11Zm-9.09-12.77L264,285.1c-.27.16-.31.4-.09.53l5.75,3.31a1,1,0,0,0,.91-.05l6.51-3.76c.28-.16.32-.39.09-.52l-5.74-3.32A1,1,0,0,0,270.55,281.34Zm-21,12.15-11,6.36c-.27.16-.31.4-.09.53l5.75,3.32a1,1,0,0,0,.91-.06l11-6.36c.28-.16.32-.4.09-.53l-5.74-3.31A1,1,0,0,0,249.51,293.49ZM261,286.84l-6.52,3.76c-.27.16-.31.39-.09.52l5.75,3.32a1,1,0,0,0,.91-.05l6.51-3.76c.28-.16.32-.4.09-.53l-5.74-3.32A1,1,0,0,0,261,286.84Zm-25.55,14.75L229,305.35c-.28.16-.32.39-.1.52l5.75,3.32a1,1,0,0,0,.91-.05l6.51-3.76c.28-.16.32-.4.09-.53l-5.74-3.31A1,1,0,0,0,235.48,301.59ZM226,307.08l-6.51,3.76c-.28.16-.32.4-.09.53l5.74,3.32a1,1,0,0,0,.91-.06l6.51-3.76c.28-.16.32-.39.1-.52L226.87,307A1,1,0,0,0,226,307.08Zm24.13,14.52,6.52-3.76c.27-.16.31-.4.09-.53L251,314a1,1,0,0,0-.91.06l-6.51,3.76c-.28.16-.32.39-.09.52l5.74,3.32A1,1,0,0,0,250.09,321.6Zm-9.51,5.49,6.51-3.76c.27-.16.31-.39.09-.52l-5.75-3.32a1,1,0,0,0-.91.05L234,323.3c-.28.16-.32.4-.09.53l5.74,3.31A1,1,0,0,0,240.58,327.09Zm-9.52,5.5,6.51-3.76c.28-.16.32-.4.09-.53L231.91,325a1,1,0,0,0-.91.06l-6.51,3.76c-.28.16-.32.39-.09.52l5.74,3.32A1,1,0,0,0,231.06,332.59Zm-9.52,5.49,6.51-3.76c.28-.16.32-.39.09-.52l-5.74-3.32a1,1,0,0,0-.92,0L215,334.29c-.28.16-.32.4-.09.53l5.75,3.32A1,1,0,0,0,221.54,338.08Zm48.58-38.48,6.51-3.76c.28-.16.32-.39.09-.52L271,292a1,1,0,0,0-.91.05l-6.51,3.76c-.28.16-.32.4-.09.53l5.74,3.32A1,1,0,0,0,270.12,299.6Zm-10.51,16.5,14.53-8.39c.28-.16.32-.39.09-.52l-14.78-8.54a1,1,0,0,0-.91.06L251,303c-.28.16-.32.4-.1.53l8.22,4.74c.23.13.19.37-.09.53l-6,3.47c-.28.16-.32.4-.09.53l5.74,3.31A1,1,0,0,0,259.61,316.1Zm-43.17-3.52-6.51,3.76c-.28.16-.32.39-.09.53l5.74,3.31a1,1,0,0,0,.91-.05l6.52-3.76c.27-.16.31-.4.09-.53l-5.75-3.31A1,1,0,0,0,216.44,312.58Zm-9.52,5.49-6.51,3.76c-.28.16-.32.4-.09.53l5.74,3.32a1,1,0,0,0,.91-.05l6.52-3.76c.27-.16.31-.4.09-.53L207.83,318A1.05,1.05,0,0,0,206.92,318.07ZM154,376.61a1,1,0,0,0,.91-.06l6.52-3.76c.27-.16.31-.39.09-.52L155.76,369a1,1,0,0,0-.91.05l-6.51,3.76c-.28.16-.32.4-.09.53ZM130.77,362l-6.51,3.76c-.28.16-.32.4-.09.53l5.74,3.31a1,1,0,0,0,.91-.05l6.52-3.76c.27-.16.31-.39.09-.52L131.68,362A1,1,0,0,0,130.77,362Zm11.68,10.8a1,1,0,0,0,.91-.06l6.52-3.76c.27-.16.31-.39.09-.52l-5.75-3.32a1,1,0,0,0-.91.05L136.8,369c-.28.16-.32.4-.09.53Zm26.5,6,6.51-3.76c.28-.16.32-.4.09-.53l-5.74-3.32a1,1,0,0,0-.91.06l-6.52,3.76c-.27.16-.31.39-.09.52l5.75,3.32A1,1,0,0,0,169,378.88Zm-10.43,5.55a1,1,0,0,0,.91-.06l6.51-3.76c.28-.16.32-.39.09-.52l-5.74-3.32a1,1,0,0,0-.91.05l-6.52,3.76c-.27.16-.31.4-.09.53Zm-18.23-27.89-6.51,3.77c-.28.16-.32.39-.09.52l5.74,3.32a1,1,0,0,0,.91,0l6.51-3.76c.28-.16.32-.4.09-.53l-5.74-3.32A1,1,0,0,0,140.29,356.54Zm47.59-27.47-6.51,3.76c-.28.16-.32.39-.09.52l5.74,3.32a1,1,0,0,0,.92-.05l6.51-3.76c.28-.16.32-.4.09-.53L188.79,329A1,1,0,0,0,187.88,329.07Zm-38.07,22-6.52,3.76c-.27.16-.31.4-.09.53l5.75,3.31a1,1,0,0,0,.91,0l6.51-3.76c.28-.16.32-.4.09-.53L150.72,351A1,1,0,0,0,149.81,351.05Zm47.59-27.48-6.51,3.76c-.28.16-.32.4-.09.53l5.74,3.31a1,1,0,0,0,.91-.05l6.52-3.76c.27-.16.31-.39.09-.52l-5.75-3.32A1,1,0,0,0,197.4,323.57Zm-19,11-6.51,3.76c-.28.16-.32.4-.09.53l5.75,3.31a1,1,0,0,0,.91-.05l6.51-3.76c.28-.16.32-.39.09-.52l-5.74-3.32A1,1,0,0,0,178.36,334.56Zm-9.51,5.5-6.52,3.76c-.27.16-.32.39-.09.52l5.75,3.32a1,1,0,0,0,.91-.05l6.51-3.76c.28-.16.32-.4.09-.53L169.76,340A1,1,0,0,0,168.85,340.06Zm-9.52,5.49-6.52,3.76c-.27.16-.31.4-.09.53l5.75,3.32a1,1,0,0,0,.91-.06l6.51-3.76c.28-.16.32-.39.09-.52l-5.74-3.32A1,1,0,0,0,159.33,345.55Zm43.17,3.53,6.51-3.77c.28-.15.32-.39.09-.52l-5.74-3.32a1,1,0,0,0-.91,0l-6.52,3.76c-.27.16-.31.4-.09.53l5.75,3.32A1.05,1.05,0,0,0,202.5,349.08Zm89.09-79.89L285.08,273c-.28.16-.32.4-.09.53l5.74,3.32a1,1,0,0,0,.91-.06l6.51-3.76c.28-.16.32-.39.1-.52l-5.75-3.32A1,1,0,0,0,291.59,269.19Zm-11.52,6.65-6.52,3.76c-.27.16-.31.4-.09.53l5.75,3.32a1,1,0,0,0,.91-.05l6.51-3.76c.28-.16.32-.4.09-.53L281,275.79A1,1,0,0,0,280.07,275.84Zm21-12.14-6.51,3.76c-.28.16-.32.39-.1.52l5.75,3.32a1,1,0,0,0,.91-.05l6.51-3.76c.28-.16.32-.4.09-.53L302,263.64A1,1,0,0,0,301.11,263.7Zm-53,48.63,6.52-3.76c.27-.16.31-.39.09-.53l-5.75-3.31a1,1,0,0,0-.91,0l-6.51,3.76c-.28.16-.32.39-.09.53l5.74,3.31A1,1,0,0,0,248.07,312.33Zm63.47-54.18a1,1,0,0,0-.91.05L304.11,262c-.27.16-.31.4-.09.53l5.75,3.31a1,1,0,0,0,.91-.05l6.51-3.76c.28-.16.32-.39.09-.53ZM212,343.58l6.51-3.76c.28-.16.32-.4.09-.53L212.88,336a1,1,0,0,0-.91,0l-6.52,3.76c-.27.16-.31.39-.09.52l5.75,3.32A1,1,0,0,0,212,343.58Zm116.73-67.4,6.51-3.76c.28-.16.32-.39.09-.52l-5.74-3.32a1,1,0,0,0-.91.05l-6.52,3.76c-.27.16-.31.4-.09.53l5.75,3.32A1,1,0,0,0,328.75,276.18Zm-18.55.28,6.51-3.76c.28-.16.32-.39.09-.52l-5.75-3.32a1,1,0,0,0-.91.05l-6.51,3.76c-.28.16-.32.4-.09.53l5.74,3.32A1,1,0,0,0,310.2,276.46Zm10.37-13.1a1,1,0,0,0-.91.06l-6.51,3.76c-.28.16-.32.39-.09.52L318.8,271a1,1,0,0,0,.91,0l6.52-3.76c.27-.16.32-.4.09-.53Zm2-1.15,14.78,8.53a1,1,0,0,0,.91-.05l6.51-3.76c.28-.16.32-.4.09-.53l-14.78-8.53a1,1,0,0,0-.91.05l-6.51,3.76C322.39,261.84,322.35,262.08,322.58,262.21Zm-22,12.2-6.51,3.76c-.28.16-.32.39-.09.52l5.75,3.32a1,1,0,0,0,.91-.05l6.51-3.76c.28-.16.32-.4.09-.53l-5.74-3.31A1,1,0,0,0,300.62,274.41ZM229,315.77l-6.51,3.76c-.28.16-.32.4-.09.53l5.74,3.31a1,1,0,0,0,.91-.05l6.52-3.76c.27-.16.31-.39.09-.52l-5.75-3.32A1,1,0,0,0,229,315.77Zm89.34-34a1,1,0,0,0,.91-.05l6.51-3.76c.28-.16.32-.4.09-.53l-5.74-3.31a1,1,0,0,0-.91.05l-6.51,3.76c-.28.16-.32.39-.1.53ZM238.5,310.28,232,314c-.28.16-.32.39-.09.52l5.74,3.32a1,1,0,0,0,.91-.05l6.52-3.76c.27-.16.31-.4.09-.53l-5.75-3.32A1,1,0,0,0,238.5,310.28Zm-75,60.83a1,1,0,0,0,.91-.05l6.52-3.76c.27-.16.31-.4.09-.53l-5.75-3.32a1,1,0,0,0-.91.06l-6.51,3.76c-.28.16-.32.39-.09.52Zm-10.68-11.37-6.51,3.76c-.28.16-.32.39-.09.52l5.74,3.32a1,1,0,0,0,.91,0l6.52-3.76c.27-.16.31-.4.09-.53l-5.75-3.32A1,1,0,0,0,152.83,359.74Zm21.11,5.82,6.52-3.76c.27-.16.31-.39.09-.52L174.8,358a1,1,0,0,0-.91.05l-6.51,3.76c-.28.16-.32.4-.09.53l5.74,3.31A1,1,0,0,0,173.94,365.56Zm9.52-5.49,6.51-3.76c.28-.16.32-.4.1-.53l-5.75-3.32a1,1,0,0,0-.91.06l-6.51,3.76c-.28.16-.32.39-.09.52l5.74,3.32A1,1,0,0,0,183.46,360.07Zm9.52-5.5,6.51-3.76c.28-.16.32-.39.09-.53L193.84,347a1,1,0,0,0-.91,0l-6.52,3.76c-.27.16-.31.4-.09.53l5.75,3.31A1,1,0,0,0,193,354.57Zm-30.63-.33L155.84,358c-.28.16-.32.4-.09.53l5.74,3.31a1,1,0,0,0,.91,0l6.52-3.76c.27-.16.31-.39.09-.52l-5.75-3.32A1,1,0,0,0,162.35,354.24Zm9.52-5.5-6.51,3.77c-.28.16-.32.39-.1.52l5.75,3.32a1,1,0,0,0,.91-.05l6.51-3.76c.28-.16.32-.4.09-.53l-5.74-3.32A1,1,0,0,0,171.87,348.74Zm38.07-22-6.51,3.76c-.28.16-.32.4-.09.53l5.75,3.32a1,1,0,0,0,.91-.06l6.51-3.76c.28-.16.32-.39.09-.52l-5.74-3.32A1,1,0,0,0,209.94,326.76Zm-9.51,5.5L193.91,336c-.27.16-.32.39-.09.52l5.75,3.32a1,1,0,0,0,.91-.05l6.51-3.76c.28-.16.32-.4.09-.53l-5.74-3.31A1,1,0,0,0,200.43,332.26Zm19-11L213,325c-.28.16-.32.39-.09.52l5.74,3.32a1,1,0,0,0,.92-.05l6.51-3.76c.28-.16.32-.4.09-.53l-5.75-3.32A1,1,0,0,0,219.46,321.27Zm-38.07,22L174.87,347c-.27.16-.31.4-.09.53l5.75,3.31a1,1,0,0,0,.91-.05L188,347c.28-.16.32-.4.09-.53l-5.74-3.31A1,1,0,0,0,181.39,343.25Zm9.52-5.5-6.52,3.76c-.27.16-.31.4-.09.53l5.75,3.32a1.05,1.05,0,0,0,.91-.05l6.51-3.77c.28-.16.32-.39.09-.52l-5.74-3.32A1,1,0,0,0,190.91,337.75Zm-12.44,35.63,6.51-3.76c.28-.16.32-.39.09-.52l-5.74-3.32a1,1,0,0,0-.91.05l-6.52,3.76c-.27.16-.31.4-.09.53l5.75,3.31A1,1,0,0,0,178.47,373.38Zm-50.56-2.58-5.75-3.32a1,1,0,0,0-.91.06l-6.51,3.76c-.28.16-.32.39-.09.52l5.74,3.32a1,1,0,0,0,.91-.05l6.52-3.76C128.09,371.17,128.13,370.93,127.91,370.8ZM140.45,374l-5.75-3.31a1,1,0,0,0-.91.05l-10,5.78c-.27.16-.31.4-.09.53l5.75,3.32a1,1,0,0,0,.91-.06l10-5.78C140.64,374.36,140.68,374.12,140.45,374Zm-21-9.81-5.75-3.31a1,1,0,0,0-.91.05l-8,4.63c-.28.16-.32.39-.09.52l5.74,3.32a1,1,0,0,0,.91-.05l8-4.63C119.64,364.55,119.68,364.31,119.45,364.18Zm6.15-3.55a1,1,0,0,0,.91-.05l6.51-3.76c.28-.16.32-.39.09-.52L127.36,353a1,1,0,0,0-.91,0l-6.51,3.76c-.28.16-.32.4-.09.53ZM152,377.76l-5.75-3.31a1,1,0,0,0-.91.05l-12.52,7.23c-.28.16-.32.4-.09.53l5.74,3.31a1,1,0,0,0,.91-.05l12.53-7.23C152.18,378.13,152.22,377.89,152,377.76Zm4.53,7.82-5.75-3.31a1,1,0,0,0-.91.05l-8,4.63c-.27.16-.31.39-.09.52l5.75,3.32a1,1,0,0,0,.91-.05l8-4.63C156.7,386,156.74,385.71,156.52,385.58Zm39.85-65.81a1,1,0,0,0,.91,0l6.51-3.76c.28-.16.32-.39.09-.53l-5.74-3.31a1,1,0,0,0-.91.05l-6.52,3.76c-.27.16-.31.4-.09.53Zm-19,11a1,1,0,0,0,.91-.05l6.52-3.76c.27-.16.31-.39.09-.52l-5.75-3.32a1,1,0,0,0-.91.05l-6.51,3.76c-.28.16-.32.4-.09.53Zm-42.22,24.38a1,1,0,0,0,.91-.05l6.52-3.76c.27-.16.32-.4.09-.53l-5.75-3.32a1,1,0,0,0-.91.06l-6.51,3.76c-.28.16-.32.39-.09.52Zm51.74-29.87a1,1,0,0,0,.91,0l6.51-3.76c.28-.16.32-.4.09-.53l-5.74-3.32a1,1,0,0,0-.91.06l-6.51,3.76c-.28.16-.32.39-.1.52Zm-19,11a1,1,0,0,0,.91-.05l6.52-3.76c.27-.16.31-.4.09-.53l-5.75-3.32a1,1,0,0,0-.91.06l-6.51,3.76c-.28.16-.32.39-.09.52Zm-6,50.07a1,1,0,0,0-.91.05l-10,5.78c-.28.16-.32.4-.09.53l5.74,3.32a1,1,0,0,0,.91-.06l10-5.78c.28-.16.32-.4.09-.53Zm-7.66-42.18a1,1,0,0,0,.91-.06l6.52-3.76c.27-.16.31-.39.09-.52l-5.75-3.32a1,1,0,0,0-.91.05l-6.51,3.76c-.28.16-.32.4-.09.53Zm-9.52,5.49a1,1,0,0,0,.91-.05l6.52-3.76c.27-.16.31-.4.09-.53L146.4,342a1,1,0,0,0-.91.05L139,345.8c-.28.16-.32.4-.09.53Zm193.53-65.13a1,1,0,0,0-.91.05l-16,9.26c-.28.16-.32.39-.09.52l5.74,3.32a1,1,0,0,0,.91-.05l16-9.26c.28-.16.32-.39.09-.52Zm-21,12.15a1,1,0,0,0-.91,0l-6.52,3.76c-.27.16-.31.4-.09.53l5.75,3.31a1,1,0,0,0,.91-.05l6.51-3.76c.28-.16.32-.39.09-.53ZM188,367.89l6.51-3.76c.28-.16.32-.4.09-.53l-5.74-3.32a1,1,0,0,0-.92.06l-6.51,3.76c-.27.16-.32.39-.09.52l5.75,3.32A1,1,0,0,0,188,367.89Zm110.09-60.24a1,1,0,0,0-.91.05l-6.51,3.76c-.28.16-.32.4-.09.53l5.74,3.32a1,1,0,0,0,.91-.06l6.51-3.76c.28-.16.32-.39.1-.52ZM347.68,279a1,1,0,0,0-.91.06l-6.52,3.76c-.27.16-.31.39-.09.52l5.75,3.32a1,1,0,0,0,.91-.05l6.51-3.76c.28-.16.32-.4.09-.53Zm15.26-2.17-14.78-8.54a1,1,0,0,0-.91.05l-6.51,3.76c-.28.16-.32.4-.09.53l14.78,8.53a1,1,0,0,0,.91-.05l6.51-3.76C363.13,277.2,363.17,277,362.94,276.84ZM262.51,328.19a1,1,0,0,0-.91.05l-8,4.63c-.27.16-.32.39-.09.52l5.75,3.32a1,1,0,0,0,.91,0l8-4.63c.28-.16.32-.4.09-.53Zm24.05-13.89a1,1,0,0,0-.91.05l-10,5.79c-.28.16-.32.39-.09.53l5.74,3.31a1,1,0,0,0,.91-.05l10-5.78c.28-.16.32-.4.09-.53Zm-46.09,26.61a1,1,0,0,0-.92.06L186,371.92c-.28.15-.32.39-.09.52l5.74,3.32a1,1,0,0,0,.91-.05l53.61-30.95c.28-.16.32-.4.09-.53ZM183.85,373.6a1,1,0,0,0-.91,0l-8,4.63c-.28.16-.32.39-.09.52l5.74,3.32a1,1,0,0,0,.91-.05l8-4.63c.27-.16.32-.39.09-.52Zm67.64-39.05a1,1,0,0,0-.91.05l-8,4.63c-.28.16-.32.4-.09.53l5.75,3.31a1,1,0,0,0,.91-.05l8-4.63c.28-.16.32-.39.09-.52ZM172.83,380a1,1,0,0,0-.91.05l-8,4.63c-.27.16-.31.4-.09.53l5.75,3.32a1,1,0,0,0,.91-.06l8-4.63c.27-.16.31-.39.09-.52Zm100.7-58.14a1,1,0,0,0-.91.06l-8,4.62c-.27.16-.31.4-.09.53l5.75,3.32a1,1,0,0,0,.91-.06l8-4.62c.27-.16.31-.4.09-.53Zm34.07-19.67a1,1,0,0,0-.91.06L300.17,306c-.27.16-.31.39-.09.52l5.75,3.32a1,1,0,0,0,.91-.05l6.51-3.76c.28-.16.32-.4.09-.53Zm20.67-15.25,6.51-3.76c.28-.16.32-.4.09-.53l-5.75-3.32a1,1,0,0,0-.91.06l-6.51,3.76c-.28.15-.32.39-.09.52l5.75,3.32A1,1,0,0,0,328.27,286.9Zm-39.12,1.71,6.52-3.76c.27-.16.31-.39.09-.52L290,281a1,1,0,0,0-.91.05l-6.51,3.76c-.28.16-.32.4-.09.53l5.74,3.31A1,1,0,0,0,289.15,288.61Zm-25,35.31,19-11c.27-.16.31-.4.09-.53l-5.75-3.31a1,1,0,0,0-.91.05l-19,11c-.27.16-.31.39-.09.53l5.75,3.31A1,1,0,0,0,264.14,323.92Zm53.7-31.48a1,1,0,0,0,.91-.05l6.51-3.76c.28-.16.32-.39.09-.52l-5.74-3.32a1,1,0,0,0-.92,0l-6.51,3.76c-.27.16-.32.4-.09.53Zm-8.13-5.26,6.52-3.76c.27-.16.31-.4.09-.53l-5.75-3.32a1,1,0,0,0-.91.05l-6.51,3.76c-.28.16-.32.4-.09.53l5.74,3.32A1,1,0,0,0,309.71,287.18Zm-55.09,42.24,6.51-3.76c.28-.16.32-.4.09-.53l-5.74-3.32a1,1,0,0,0-.91.05l-6.52,3.77c-.27.15-.31.39-.09.52l5.75,3.32A1,1,0,0,0,254.62,329.42Zm42.17-24.83a1,1,0,0,0,.92,0l6.51-3.76c.28-.16.32-.4.09-.53l-5.75-3.31a1,1,0,0,0-.91.05l-6.51,3.76c-.28.16-.32.39-.09.53ZM207,356.89l6.51-3.76c.27-.16.32-.39.09-.52l-5.75-3.32a1,1,0,0,0-.91,0l-6.51,3.76c-.28.16-.32.4-.09.53l5.74,3.32A1,1,0,0,0,207,356.89Zm9.51-5.49,6.52-3.76c.27-.16.31-.4.09-.53l-5.75-3.31a1,1,0,0,0-.91.05L210,347.61c-.28.16-.32.39-.09.52l5.74,3.32A1,1,0,0,0,216.54,351.4Zm-19,11,6.51-3.76c.28-.16.32-.4.09-.53l-5.74-3.31a1,1,0,0,0-.92,0l-6.51,3.76c-.28.16-.32.39-.09.53l5.75,3.31A1,1,0,0,0,197.51,362.39Zm38.07-22,6.51-3.76c.28-.16.32-.4.1-.53l-5.75-3.32a1,1,0,0,0-.91.06L229,336.62c-.28.16-.32.39-.09.52l5.74,3.32A1,1,0,0,0,235.58,340.41Zm-9.52,5.49,6.52-3.76c.27-.16.31-.39.09-.52l-5.75-3.32a1,1,0,0,0-.91.05l-6.51,3.76c-.28.16-.32.4-.09.53l5.74,3.32A1,1,0,0,0,226.06,345.9Zm19-11,6.51-3.76c.28-.16.32-.39.09-.52L246,327.31a1,1,0,0,0-.91.05l-6.52,3.76c-.27.16-.31.4-.09.53l5.75,3.31A1,1,0,0,0,245.1,334.91Zm52.6-76.07a1,1,0,0,0,.91-.06l6.51-3.76c.28-.16.32-.39.09-.52l-1.52-.89a1,1,0,0,0-.92.06l-6.51,3.76c-.28.16-.32.39-.09.52Zm-47.49,29.85a1,1,0,0,0,.91-.05l6.51-3.76c.28-.16.32-.4.09-.53L252,281a1,1,0,0,0-.91.05l-6.52,3.77c-.27.16-.31.39-.09.52Zm19-11a1,1,0,0,0,.91-.06l6.51-3.76c.28-.16.32-.39.09-.52L271,270a1,1,0,0,0-.91,0l-6.52,3.76c-.27.16-.32.4-.09.53Zm-30.66,17.7a1,1,0,0,0,.91,0l6.51-3.76c.28-.16.32-.4.09-.53l-5.74-3.32a1,1,0,0,0-.92.06l-6.51,3.76c-.28.16-.32.39-.09.52Zm21.14-12.21a1,1,0,0,0,.91-.05l6.51-3.76c.28-.16.32-.4.09-.53l-5.74-3.31a1,1,0,0,0-.91,0l-6.52,3.76c-.27.16-.31.39-.09.53Zm-40.18,23.2a1,1,0,0,0,.91-.05l6.51-3.76c.28-.16.32-.4.09-.53l-5.74-3.32a1,1,0,0,0-.91.06l-6.52,3.76c-.27.16-.31.39-.09.52Zm9.52-5.5a1,1,0,0,0,.91-.05l6.51-3.76c.28-.16.32-.39.09-.52l-5.74-3.32a1,1,0,0,0-.91.05l-6.52,3.76c-.27.16-.31.4-.09.53Zm49.59-31.06a1,1,0,0,0,.91-.06l6.52-3.76c.27-.16.31-.39.09-.52l-1.53-.88a1,1,0,0,0-.91.05l-6.52,3.76c-.27.16-.31.39-.09.52Zm28.56-16.49a1,1,0,0,0,.91-.05l6.51-3.76c.28-.16.32-.4.09-.53l-1.53-.88a1,1,0,0,0-.91,0l-6.51,3.76c-.28.16-.32.4-.09.53Zm12.07,7a1,1,0,0,0,.91-.05l6.51-3.76c.28-.16.32-.4.09-.53l-5.74-3.32a1,1,0,0,0-.91,0l-6.52,3.76c-.27.16-.31.4-.09.53Zm18.49,21.09,6.52-3.76c.27-.16.32-.4.09-.53l-5.75-3.31a1,1,0,0,0-.91.05l-6.51,3.76c-.28.16-.32.4-.09.53l5.74,3.31A1,1,0,0,0,337.78,281.4Zm-49.6-17.07a1,1,0,0,0,.91-.05l6.51-3.76c.28-.16.32-.4.1-.53l-1.53-.88a1,1,0,0,0-.92.05l-6.51,3.76c-.27.16-.32.4-.09.53ZM210,311.89a1,1,0,0,0,.91-.06l6.51-3.76c.28-.16.32-.39.09-.52l-5.74-3.32a1,1,0,0,0-.91,0L204.37,308c-.27.16-.31.4-.09.53Z" style="opacity:0.1"></path><polygon points="239.17 361.04 240.51 361.81 275.98 382.29 339.06 345.87 340.37 345.12 303.57 323.87 239.17 361.04" style="opacity:0.4"></polygon><polygon points="240.51 361.81 275.98 382.29 339.06 345.87 303.57 325.39 240.51 361.81" style="fill:#F62222"></polygon><polygon points="240.51 361.81 275.98 382.29 339.06 345.87 303.57 325.39 240.51 361.81" style="opacity:0.45"></polygon><path d="M57.28,354.41a9.47,9.47,0,0,0,1.8.77,8.32,8.32,0,0,1-1.8-.76c-.18-.11-.37-.23-.55-.36Z" style="fill:#F62222"></path><path d="M67.52,355s0,0,.09-.08l-.07.07Z" style="fill:#F62222"></path></g></g><g id="freepik--Character--inject-139"><g id="freepik--character--inject-139"><path d="M394.92,231.91c5.5-.3,9.45,2.67,10.24,7.89.65,4.26-.15,22.12-.15,22.12,7.5,6.8,13.54,10.3,16.15,11.41,3.26,1.38,10.75,11.54,10.52,13.45s-3.41-2-5.46-4-6.76-1.72-11.18-3.84-18.32-10.12-20.23-12.77S394.92,231.91,394.92,231.91Z" style="fill:#ffa8a7"></path><path d="M393,231.73s4.5-.71,6.84.37,5.09,3.72,5.48,6.12.68,4.1.57,12c-.06,4.66-.24,7.23-.24,7.23-7.08,2.22-10.92.72-14.39-.34Z" style="fill:#37474f"></path><g id="freepik--character--inject-139"><path d="M450.05,342.17s2.52,7.77,4.53,11.4a56.16,56.16,0,0,0,7.13,10.35c.64.7,2.08,2,2.6,2.59a1.12,1.12,0,0,1-.09,1.73c-1.25,1.24-6.63,1.62-9.68-.59s-6.1-6.45-7.93-8.24L444.2,357a2.47,2.47,0,0,1-.65-2.31c.06-.24.13-.52.2-.84.38-1.75-2-8.84-2-8.84Z" style="fill:#ffa8a7"></path><path d="M389.73,266.64c-1.05,5.87-1.37,9.19.69,15.11s6.88,15.35,15.16,20c6.86,3.84,16.47,8.49,18.49,9.39,1.57.7,1.84,3.47,3,7.74,1.33,4.71,2.48,6.84,6.8,14.76,4.8,8.78,7,13.12,7,13.12,2.25-1.73,7.71-3.46,9.82-3.59,0,0-9.84-36.71-11.65-41.74S424.17,289,418.54,285.75s-8.76-5.26-15.18-9.61Z" style="fill:#455a64"></path><path d="M418.54,285.75c-5.62-3.24-8.76-5.26-15.18-9.61l-9.16-6.39L389,271.39a22.39,22.39,0,0,0,1.39,10.36c2.07,5.93,6.88,15.35,15.16,20,6.86,3.84,16.47,8.49,18.49,9.39,1.57.7,1.84,3.47,3,7.74a39,39,0,0,0,1.22,3.73c-1.22-3.74-1.16-10.35-1.86-12.46s-7.28-5.81-7.28-5.81l-4.41-4.76,13.75-7.8C424.82,289.33,421,287.15,418.54,285.75Z" style="fill:#37474f"></path><path d="M443.29,358.71a5.6,5.6,0,0,0,.28,1.87c.3.67,2.56,1.5,3.54,2a5.27,5.27,0,0,1,2.72,3,12.66,12.66,0,0,0,5.72,5.36,16.06,16.06,0,0,0,9.54.8c4-.79,4.24-3.15,4.24-3.15s.17-2.21-.83-2.54S443.29,358.71,443.29,358.71Z" style="fill:#263238"></path><path d="M443.11,350.67a.58.58,0,0,0-.27.32c-.06.17.07.45.11.63a11.37,11.37,0,0,1,.26,3.13,9,9,0,0,0,.08,4c1.91,2.33,4.41,2.12,6.06,4.31s4.08,6.16,9.31,7.09,9.16-.8,10.1-2.3,0-2.89-3.35-4.63c-3.59-1.84-8.37-7.46-8.37-7.46a23.49,23.49,0,0,1-1.81-2.51,4.43,4.43,0,0,1-.72-1.63,6,6,0,0,1-.11-1.84c0-.37.09-.8-.18-1.05a1.07,1.07,0,0,0-.93-.14,16.37,16.37,0,0,0-3.56,1,3.51,3.51,0,0,0-2.4,2.14c-.14.51-.11,1.05-.21,1.58a.93.93,0,0,1-.49.75c-.41.14-.81-.26-1-.67a3.45,3.45,0,0,0-.49-1.2c-.49-.51-1.36-.28-1.69-.91l-.14-.61A.43.43,0,0,0,443.11,350.67Z" style="fill:#F62222"></path><path d="M443.11,350.67a.58.58,0,0,0-.27.32c-.06.17.07.45.11.63a11.37,11.37,0,0,1,.26,3.13,9,9,0,0,0,.08,4c1.91,2.33,4.41,2.12,6.06,4.31s4.08,6.16,9.31,7.09,9.16-.8,10.1-2.3,0-2.89-3.35-4.63c-3.59-1.84-8.37-7.46-8.37-7.46a23.49,23.49,0,0,1-1.81-2.51,4.43,4.43,0,0,1-.72-1.63,6,6,0,0,1-.11-1.84c0-.37.09-.8-.18-1.05a1.07,1.07,0,0,0-.93-.14,16.37,16.37,0,0,0-3.56,1,3.51,3.51,0,0,0-2.4,2.14c-.14.51-.11,1.05-.21,1.58a.93.93,0,0,1-.49.75c-.41.14-.81-.26-1-.67a3.45,3.45,0,0,0-.49-1.2c-.49-.51-1.36-.28-1.69-.91l-.14-.61A.43.43,0,0,0,443.11,350.67Z" style="opacity:0.5"></path><path d="M455.26,368.93A6.62,6.62,0,0,1,459,363.2c3.89-2.09,6.31-.84,7.53,0,1.45,1,3.54,3.12,2.33,4.71s-3.45,2.56-7.46,2.68A9.53,9.53,0,0,1,455.26,368.93Z" style="fill:#fafafa"></path><path d="M449.63,356.85a.47.47,0,0,0,.36-.2c.43-.63,3.25-3,6-2.29.13-.33-.11-.65-.68-1a8.14,8.14,0,0,0-6.11,2.8.43.43,0,0,0,.13.6A.54.54,0,0,0,449.63,356.85Z" style="fill:#fafafa"></path><path d="M457.64,356.4a1.35,1.35,0,0,0-.8-.94,8.22,8.22,0,0,0-5.74,2.81.42.42,0,0,0,.12.6.41.41,0,0,0,.28.07.42.42,0,0,0,.35-.19C452.27,358.14,455,355.88,457.64,356.4Z" style="fill:#fafafa"></path><path d="M462.07,360.8a2.49,2.49,0,0,0-1.26-1.14,8.16,8.16,0,0,0-6,2.81.41.41,0,0,0,.13.59.38.38,0,0,0,.27.07.45.45,0,0,0,.36-.19C456,362.28,459.15,359.66,462.07,360.8Z" style="fill:#fafafa"></path><path d="M453.36,361a.46.46,0,0,0,.35-.2c.43-.62,3.19-2.95,5.94-2.31a1.55,1.55,0,0,0-.95-1,8.26,8.26,0,0,0-5.74,2.82.42.42,0,0,0,.13.6A.52.52,0,0,0,453.36,361Z" style="fill:#fafafa"></path><path d="M430.72,352.42s1.36,9.31,4.08,12.77c2.46,3.12,4.22,7.1,7.14,10.35.63.71,2.07,2,2.59,2.59a1.12,1.12,0,0,1-.09,1.73c-1.25,1.24-6.62,1.62-9.68-.58s-6.09-6.46-7.92-8.25c-.92-.89-1.78-1.75-2.41-2.38a2.41,2.41,0,0,1-.65-2.31c.06-.24.12-.51.19-.84.39-1.74-2-8.84-2-8.84Z" style="fill:#ffa8a7"></path><path d="M423.55,370.48a5.6,5.6,0,0,0,.28,1.87c.3.67,2.56,1.5,3.54,2s1.76,1,2.73,3a12.65,12.65,0,0,0,5.71,5.37,16.07,16.07,0,0,0,9.54.79c4-.79,4.24-3.14,4.24-3.14s.17-2.22-.83-2.55S423.55,370.48,423.55,370.48Z" style="fill:#263238"></path><path d="M423.37,362.45a.52.52,0,0,0-.27.32c-.06.17.07.44.11.62a11.4,11.4,0,0,1,.26,3.13,9,9,0,0,0,.08,4c1.91,2.33,4.41,2.12,6.06,4.31s4.08,6.16,9.31,7.09,9.16-.8,10.1-2.3,0-2.88-3.35-4.62c-3.59-1.85-8.37-7.47-8.37-7.47a23.49,23.49,0,0,1-1.81-2.51,4.43,4.43,0,0,1-.72-1.63,6,6,0,0,1-.11-1.84c0-.37.09-.8-.18-1.05a1.1,1.1,0,0,0-.93-.14,16.37,16.37,0,0,0-3.56,1,3.54,3.54,0,0,0-2.4,2.14c-.14.51-.11,1.06-.21,1.58a.93.93,0,0,1-.48.75c-.42.15-.82-.26-1-.67a3.45,3.45,0,0,0-.49-1.2c-.49-.51-1.36-.28-1.69-.91l-.14-.61A.38.38,0,0,0,423.37,362.45Z" style="fill:#F62222"></path><path d="M423.37,362.45a.52.52,0,0,0-.27.32c-.06.17.07.44.11.62a11.4,11.4,0,0,1,.26,3.13,9,9,0,0,0,.08,4c1.91,2.33,4.41,2.12,6.06,4.31s4.08,6.16,9.31,7.09,9.16-.8,10.1-2.3,0-2.88-3.35-4.62c-3.59-1.85-8.37-7.47-8.37-7.47a23.49,23.49,0,0,1-1.81-2.51,4.43,4.43,0,0,1-.72-1.63,6,6,0,0,1-.11-1.84c0-.37.09-.8-.18-1.05a1.1,1.1,0,0,0-.93-.14,16.37,16.37,0,0,0-3.56,1,3.54,3.54,0,0,0-2.4,2.14c-.14.51-.11,1.06-.21,1.58a.93.93,0,0,1-.48.75c-.42.15-.82-.26-1-.67a3.45,3.45,0,0,0-.49-1.2c-.49-.51-1.36-.28-1.69-.91l-.14-.61A.38.38,0,0,0,423.37,362.45Z" style="opacity:0.5"></path><path d="M435.52,380.71a6.64,6.64,0,0,1,3.75-5.74c3.9-2.09,6.31-.84,7.53,0,1.45,1,3.54,3.12,2.33,4.71s-3.45,2.56-7.46,2.68A9.56,9.56,0,0,1,435.52,380.71Z" style="fill:#fafafa"></path><path d="M429.9,368.62a.49.49,0,0,0,.35-.19c.43-.64,3.25-3,6-2.3.13-.32-.11-.65-.68-1a8.14,8.14,0,0,0-6.11,2.8.43.43,0,0,0,.13.6A.55.55,0,0,0,429.9,368.62Z" style="fill:#fafafa"></path><path d="M437.9,368.18a1.35,1.35,0,0,0-.8-.95,8.26,8.26,0,0,0-5.74,2.82.41.41,0,0,0,.12.59.41.41,0,0,0,.28.07.42.42,0,0,0,.35-.19C432.53,369.91,435.21,367.65,437.9,368.18Z" style="fill:#fafafa"></path><path d="M442.33,372.57a2.49,2.49,0,0,0-1.26-1.14,8.19,8.19,0,0,0-6,2.81.42.42,0,0,0,.13.6.52.52,0,0,0,.27.07.49.49,0,0,0,.36-.2C436.3,374.05,439.41,371.43,442.33,372.57Z" style="fill:#fafafa"></path><path d="M433.62,372.81a.45.45,0,0,0,.35-.19c.43-.63,3.19-3,5.94-2.32a1.51,1.51,0,0,0-1-1,8.22,8.22,0,0,0-5.74,2.81.42.42,0,0,0,.13.6A.44.44,0,0,0,433.62,372.81Z" style="fill:#fafafa"></path><path d="M369.1,278.05c-.68,5.81-2,10,0,15.9s8.88,10.47,17.16,15.11c6.86,3.83,16.56,8.92,18.49,10,2.55,1.44,2.64,3.72,3.3,7.54.86,5,2,9.6,6.2,17.78,4.36,8.48,7,13.93,7,13.93a37.19,37.19,0,0,1,10.34-3.79s-8.59-38.42-10.4-43.45-21.12-21-21.12-21,2.45-3.74,3.18-10.83Z" style="fill:#455a64"></path><path d="M390.79,298c3.19.26,4.7-4.8,4.7-4.8l-7.84-6-14.71-7.18L369,279A58.41,58.41,0,0,0,368,288c4.11,1.2,11.85,3.56,13.41,4.67C383.59,294.23,387.6,297.77,390.79,298Z" style="fill:#37474f"></path><path d="M403.79,244.32c.52-5.46-2.33-12.26-10.76-12.6l-12.22.16a29.67,29.67,0,0,0-12.22,3.26l-3,20.62a93.59,93.59,0,0,0,2.85,28.1c7.79,4.94,27,2.2,37.68-5.88C401.78,268.64,403.23,250.33,403.79,244.32Z" style="fill:#F62222"></path><path d="M403.79,244.32c.52-5.46-2.33-12.26-10.76-12.6l-12.22.16a29.67,29.67,0,0,0-12.22,3.26l-3,20.62a93.59,93.59,0,0,0,2.85,28.1c7.79,4.94,27,2.2,37.68-5.88C401.78,268.64,403.23,250.33,403.79,244.32Z" style="fill:#fff;opacity:0.5"></path><path d="M386.05,210.17s0-.08,0-.12a2.74,2.74,0,0,0-.64-2.2c-.48-.38-1.07-.6-1.56-1l-2.54-2.2a3.88,3.88,0,0,0-3.3.86c-1.5,1.3-1.09,5.77.27,10.23,0,0,1,8,1.6,9.34a3.55,3.55,0,0,0,1.92,1.83c.15-2.42,0-5,.79-7.28C383.69,216.45,385.86,213.58,386.05,210.17Z" style="fill:#455a64"></path><path d="M382.36,216.41c-.66.32-1.47-1-2.18-1.85s-3.16-2.2-4.65.37.67,6.27,2.55,7.21a2.48,2.48,0,0,0,3.24-1c-.25,3.94-.66,9.39-.85,11,4,6.75,16,6.79,12.29.61l.19-2.66a24.13,24.13,0,0,0,4.64.53,5.73,5.73,0,0,0,5.32-4.18c1.6-4.31,2.36-7.84,2-16.6-.37-9.61-11.43-10.62-17.71-7.35S382.36,216.41,382.36,216.41Z" style="fill:#ffa8a7"></path><path d="M408.2,201.27a4,4,0,0,0-2.64-.57,3.26,3.26,0,0,0-1.62-3.44,3.77,3.77,0,0,0-4.15.15,1.93,1.93,0,0,0-1.38-2.31,5.19,5.19,0,0,0-3,.2c-1.44.39-2.87.85-4.32,1.19-2.57.59-5.26.8-7.64,1.93a4.67,4.67,0,0,0-1.53,1.06,3.92,3.92,0,0,0-.87,2.41,5,5,0,0,0,0,.86,2.1,2.1,0,0,0-3.52.2l3.56,2.3c-.17.75-.33,1.49-.48,2.24-.4,2-1,4.27-.75,6.31a1.54,1.54,0,0,0,.18.69,3,3,0,0,1,.44.71l.54,1.29c.26.65.85,1.72,1.71,1.42a2.18,2.18,0,0,0,1.07-1.09,11.84,11.84,0,0,0,1.35-7.12,5.59,5.59,0,0,0,5.16-2.35,15,15,0,0,0,10.21,2.22,12.75,12.75,0,0,0,5.53-1.89C408,206.42,411,203.18,408.2,201.27Z" style="fill:#455a64"></path><path d="M393,230.14s-5.56-1.39-7.46-2.61a7.45,7.45,0,0,1-2.53-3.36,8,8,0,0,0,1.16,3.61c1.29,2,8.73,3.95,8.73,3.95Z" style="fill:#f28f8f"></path><path d="M394.1,217.45a1.15,1.15,0,1,1-1-1.29A1.17,1.17,0,0,1,394.1,217.45Z" style="fill:#263238"></path><path d="M392.05,212.31l-2.61,1a1.47,1.47,0,0,1,.85-1.84A1.36,1.36,0,0,1,392.05,212.31Z" style="fill:#263238"></path><path d="M392.62,224l3.15,1.49a1.71,1.71,0,0,1-2.29.89A1.83,1.83,0,0,1,392.62,224Z" style="fill:#f28f8f"></path><path d="M403.42,213.27l-2.33-1.42a1.31,1.31,0,0,1,1.83-.45A1.39,1.39,0,0,1,403.42,213.27Z" style="fill:#263238"></path><path d="M402.92,217.72a1.17,1.17,0,0,1-1.24,1.09,1.19,1.19,0,0,1-1.05-1.29,1.15,1.15,0,1,1,2.29.2Z" style="fill:#263238"></path><path d="M406.69,214.48l-.5-.08a14.4,14.4,0,0,0-5,0c-1.63.44-2.22,1-3.11,1s-1.5-.6-3.17-1.14a16.29,16.29,0,0,0-5.32-.32l-.54,0a.9.9,0,0,0-.65.88,1.93,1.93,0,0,0,.44,1.06,1.41,1.41,0,0,1,.15.43,18.09,18.09,0,0,0,.46,2.91,3.41,3.41,0,0,0,.62,1.06,2.34,2.34,0,0,0,.32.31l.2.15a2.87,2.87,0,0,0,.58.3l.1,0,.15,0,.17.05a3.69,3.69,0,0,0,.52.1l.22,0,.29,0a3.78,3.78,0,0,0,3.79-2c.61-1.08.57-2.64,1.58-2.6h.19c.73.2.55,1.62.95,2.65a4.28,4.28,0,0,0,.64,1.14l.16.18.09.08.09.08.08.07.09.07.07.05a.1.1,0,0,1,0,0,3.9,3.9,0,0,0,.85.38l.08,0a4.69,4.69,0,0,0,1.06.14,3.23,3.23,0,0,0,3.23-1.92,19.78,19.78,0,0,0,.81-2.87,1,1,0,0,1,.21-.38,2.1,2.1,0,0,0,.54-1.05A.87.87,0,0,0,406.69,214.48Zm-10.78,3.79a3.34,3.34,0,0,1-.86,1.5h0a3.17,3.17,0,0,1-2.45.81,2.56,2.56,0,0,1-2.22-1.18l-.07-.11-.06-.11-.05-.11,0-.09,0-.08a.14.14,0,0,1,0-.06.76.76,0,0,1,0-.11h0c0-.12-.07-.22-.1-.33h0a1.29,1.29,0,0,1,0-.19c0-.11,0-.22-.06-.31v-.12c-.12-.77-.22-2.28.18-2.61a4.33,4.33,0,0,1,3-.44l.17,0c.25,0,.5.09.74.15l.28.08c.25.08.49.17.71.26l.22.11a1.67,1.67,0,0,1,.23.12l.05,0,.08,0a1.35,1.35,0,0,1,.46.41A3.48,3.48,0,0,1,395.91,218.27Zm9.53-.05a3.43,3.43,0,0,1-1.7,2.4,2.84,2.84,0,0,1-1.23.24,2.53,2.53,0,0,1-2.36-1.22h0l0-.07a.59.59,0,0,1,0-.08l0,0,0-.12-.06-.14a.64.64,0,0,0,0-.07v0a.14.14,0,0,1,0-.06l0-.05a5.34,5.34,0,0,1-.12-.57,3.75,3.75,0,0,1,.21-2.31,4.5,4.5,0,0,1,2.74-1.06,6.75,6.75,0,0,1,.75,0H404l.12,0a.64.64,0,0,1,.2,0,2.12,2.12,0,0,1,.38.08l.08,0h0l.05,0,.09,0,.11,0,.17.08,0,0a1.39,1.39,0,0,1,.39.27C406,216,405.65,217.45,405.44,218.22Z" style="fill:#263238"></path><polygon points="397.73 216.75 397.3 223.32 401.44 222.77 397.73 216.75" style="fill:#f28f8f"></polygon><path d="M389.05,214l-9.3.17s.55.29,1.14,1.83h8.16Z" style="fill:#263238"></path></g><path d="M381.54,299.93v.76a2.12,2.12,0,0,0,1.06,1.84l20.26,11.67a2.13,2.13,0,0,0,1.06.28,2.08,2.08,0,0,0,1.06-.28l37.19-21.46a2.1,2.1,0,0,0,1.06-1.84v-.51l-39.31,22.68Z" style="fill:#F62222"></path><g style="opacity:0.4"><path d="M381.54,299.93v.76a2.12,2.12,0,0,0,1.06,1.84l20.26,11.67a2.13,2.13,0,0,0,1.06.28,2.08,2.08,0,0,0,1.06-.28l37.19-21.46a2.1,2.1,0,0,0,1.06-1.84v-.51l-39.31,22.68Z"></path></g><g style="opacity:0.2"><path d="M403.92,313.07v1.41a2.08,2.08,0,0,0,1.06-.28l37.19-21.46a2.1,2.1,0,0,0,1.06-1.84v-.51Z"></path></g><path d="M443.23,290.39l-22-12.74a1.29,1.29,0,0,0-1.26,0l-38.25,22.07a.28.28,0,0,0,0,.49l22.24,12.86Z" style="fill:#F62222"></path><g style="opacity:0.1"><path d="M443.23,290.39l-22-12.74a1.29,1.29,0,0,0-1.26,0l-38.25,22.07a.28.28,0,0,0,0,.49l22.24,12.86Z"></path></g><polygon points="403.72 311.19 391.83 304.33 426.61 284.27 438.56 291.1 403.72 311.19" style="fill:#455a64"></polygon><polygon points="397.88 292.12 398.1 292.24 403.93 295.61 414.29 289.63 414.51 289.51 408.46 286.01 397.88 292.12" style="fill:#37474f"></polygon><polygon points="398.1 292.24 403.93 295.61 414.29 289.63 408.46 286.26 398.1 292.24" style="fill:#455a64"></polygon><path d="M404.52,313.38a2.51,2.51,0,0,0,2.17-.17l37-21.36a2.53,2.53,0,0,0,1.23-1.76L449,265.93a2.93,2.93,0,0,0,0-.41,2.53,2.53,0,0,0-.74-1.79l-38.48,22.2a1.85,1.85,0,0,0-.9,1.3Z" style="fill:#F62222"></path><g style="opacity:0.1"><path d="M404.52,313.38a2.51,2.51,0,0,0,2.17-.17l37-21.36a2.53,2.53,0,0,0,1.23-1.76L449,265.93a2.93,2.93,0,0,0,0-.41,2.53,2.53,0,0,0-.74-1.79l-38.48,22.2a1.85,1.85,0,0,0-.9,1.3Z"></path></g><path d="M403.92,313.07l.26.14a2.16,2.16,0,0,0,.34.17l4.39-26.15a1.85,1.85,0,0,1,.9-1.3l38.48-22.2a2.53,2.53,0,0,0-.52-.39l-38.55,22.24a1.85,1.85,0,0,0-.9,1.3Z" style="fill:#F62222"></path><g style="opacity:0.4"><path d="M403.92,313.07l.26.14a2.16,2.16,0,0,0,.34.17l4.39-26.15a1.85,1.85,0,0,1,.9-1.3l38.48-22.2a2.53,2.53,0,0,0-.52-.39l-38.55,22.24a1.85,1.85,0,0,0-.9,1.3Z"></path></g><path d="M425.38,291.08a8.15,8.15,0,0,1,3.73-4.8c1.79-1,3-.56,2.75,1.06a8.21,8.21,0,0,1-3.74,4.8C426.33,293.17,425.1,292.7,425.38,291.08Z" style="fill:#fff"></path><path d="M383.39,291.08c-4.38-2.22-20.49-8-24.6-11.52-3.09-2.61-2.31-5.8-1.84-8.84.45-2.84,5-23.37,7.6-28.77,2.27-4.74,3.85-5.84,9.05-7,3.59,4.18,3.77,16.62.24,21.16l-4,16.16a122.86,122.86,0,0,0,11.3,7.83c3.52,2.16,6.28,4.66,9.32,5.78,2.05.75,5.85,2.64,6.52,3.55a66,66,0,0,1,4,7.48c.52,1.4,1.85,4.28-.87,4.6-2.48.3-4.19-1.06-5.85-2.72a25.06,25.06,0,0,1-2.14-2.58,9.49,9.49,0,0,1-5.29-2.12C385.55,293,383.39,291.08,383.39,291.08Z" style="fill:#ffa8a7"></path><path d="M372,233.64a8.64,8.64,0,0,0-6.94,4.15c-1.93,2.71-6.7,20.65-6.7,20.65s1.14,3,7.34,4.44,6.91.28,6.91.28l5.27-16S377.62,236.36,372,233.64Z" style="fill:#37474f"></path></g></g><g id="freepik--speech-bubble--inject-139"><g id="freepik--speech-bubble--inject-139"><path d="M395.4,181.44l-2.79-5.24,2.25-6.49v-4l-6.87,4v4l2.95,5.12a.43.43,0,0,0,.2.18h0Z" style="fill:#263238"></path><path d="M411.82,134.2a4.55,4.55,0,0,0-2.06-3.57l-1.68-1a4.53,4.53,0,0,0-4.12,0l-25.73,14.88a4.56,4.56,0,0,0-2.06,3.57v28.31a4.53,4.53,0,0,0,2.06,3.57l1.67,1a4.55,4.55,0,0,0,4.13,0l8.27-4.78,2.95,5.11a.44.44,0,0,0,.8-.08l3.11-9,10.6-6.14a4.56,4.56,0,0,0,2.06-3.57Z" style="fill:#37474f"></path><path d="M376.17,176.42a4.53,4.53,0,0,0,2.06,3.57l1.67,1a4.58,4.58,0,0,0,3.77.17c-1,.37-1.71-.18-1.71-1.36V151.46a4.25,4.25,0,0,1,.61-2l-5.8-3.35a4.27,4.27,0,0,0-.6,2Z" style="fill:#263238"></path><path d="M411.75,133.61c-.24-.87-1-1.15-2-.6L384,147.89a4.23,4.23,0,0,0-1.45,1.54l-5.79-3.34a4,4,0,0,1,1.45-1.54L404,129.66a4.62,4.62,0,0,1,4.13,0l1.68,1A4.55,4.55,0,0,1,411.75,133.61Z" style="fill:#455a64"></path><g id="freepik----inject-139"><path d="M384.88,162.89a1.44,1.44,0,0,1,.1-.58,3.41,3.41,0,0,1,.3-.55l5.6-9a.53.53,0,0,1,.09-.11l.06,0a.15.15,0,0,1,.21,0,.34.34,0,0,1,.08.27v3.49a1.49,1.49,0,0,1-.16.73,4.42,4.42,0,0,1-.28.48l-2.89,4.4,2.89,1.32a.91.91,0,0,1,.28.14c.11.06.16.24.16.53v2.48a.8.8,0,0,1-.08.37.6.6,0,0,1-.21.25l-.06,0h-.09l-5.6-2.58a.75.75,0,0,1-.3-.2.78.78,0,0,1-.1-.47Z" style="fill:#fff"></path><path d="M397.94,148.61a3.28,3.28,0,0,1,.21-.57,1.09,1.09,0,0,1,.41-.44l1.87-1.08a.17.17,0,0,1,.22,0,.38.38,0,0,1,.09.28.88.88,0,0,1,0,.21L396,167.18a3.34,3.34,0,0,1-.2.54,1,1,0,0,1-.42.46l-1.83,1.06a.17.17,0,0,1-.22,0,.38.38,0,0,1-.09-.28.88.88,0,0,1,0-.21Z" style="fill:#fff"></path><path d="M408.75,151.87a1.43,1.43,0,0,1-.11.58,3.41,3.41,0,0,1-.3.55l-5.6,9.05a.3.3,0,0,1-.09.1l-.06,0a.15.15,0,0,1-.21,0,.38.38,0,0,1-.08-.27v-3.49a1.42,1.42,0,0,1,.16-.72c.11-.19.2-.34.28-.46l2.69-3.93-2.69-1a1,1,0,0,1-.28-.14c-.11-.08-.16-.26-.16-.55v-3.25a1,1,0,0,1,.08-.37.6.6,0,0,1,.21-.25l.06,0a.14.14,0,0,1,.09,0l5.6,2.58a.75.75,0,0,1,.3.2.77.77,0,0,1,.11.47Z" style="fill:#fff"></path></g></g></g></svg>