<svg xmlns="http://www.w3.org/2000/svg" xmlns:xlink="http://www.w3.org/1999/xlink" viewBox="0 0 500 500"><defs><clipPath id="freepik--clip-path--inject-23"><polygon points="87.86 98.58 94.54 146.78 138.43 140.63 132.45 92.58 87.86 98.58" style="fill:#EF0F0F"></polygon></clipPath></defs><g id="freepik--Document--inject-23"><path d="M98.94,66.79C97.6,112,93.67,281.94,92.63,327.28a11.26,11.26,0,0,0,10.92,11.52l186.24,5.69a11.27,11.27,0,0,0,11.61-11l2.9-131.34,15.77-.26a7.17,7.17,0,0,0,7.05-7.08L328.33,89a7.17,7.17,0,0,0-7.05-7.24L307,81.48l.11-10.23a11.21,11.21,0,0,0-11-11.33l-185.79-4A11.2,11.2,0,0,0,98.94,66.79Z" style="fill:#EF0F0F"></path><path d="M98.94,66.79C97.6,112,93.67,281.94,92.63,327.28a11.26,11.26,0,0,0,10.92,11.52l186.24,5.69a11.27,11.27,0,0,0,11.61-11l2.9-131.34,15.77-.26a7.17,7.17,0,0,0,7.05-7.08L328.33,89a7.17,7.17,0,0,0-7.05-7.24L307,81.48l.11-10.23a11.21,11.21,0,0,0-11-11.33l-185.79-4A11.2,11.2,0,0,0,98.94,66.79Z" style="opacity:0.4"></path><polygon points="113.09 68.73 96.66 330.4 288.57 341.15 304.06 81.45 113.09 68.73" style="fill:#e0e0e0"></polygon><polygon points="90.02 63.05 91.3 325.24 283.5 323 281.42 62.85 90.02 63.05" style="fill:#ebebeb"></polygon><polygon points="64.86 81.09 101.14 340.76 291.32 312.88 254.52 55.34 64.86 81.09" style="fill:#fafafa"></polygon><path d="M64.86,81.09l189.63-26,.21,0,0,.21c10.35,72.35,23.09,161.38,36.84,257.53l0,.26-.26,0-1.38.2L101.17,341l-.24,0,0-.24c-21.32-153.63-35.75-257.63-36-259.7l36.51,259.64-.27-.21,188.79-27.69,1.39-.21-.22.3c-13.72-96.16-26.43-185.19-36.75-257.55l.24.18Z" style="fill:#263238"></path><path d="M242.57,141.26c.07.43-32.53,5.9-72.81,12.23s-73,11.1-73,10.68,32.53-5.9,72.81-12.23S242.5,140.84,242.57,141.26Z" style="fill:#263238"></path><path d="M256.5,211c.06.42-32.54,5.9-72.81,12.22s-73,11.11-73,10.68,32.52-5.9,72.81-12.22S256.43,210.56,256.5,211Z" style="fill:#263238"></path><path d="M258.53,236.1c.06.43-32.54,5.9-72.81,12.22s-73,11.11-73,10.68,32.52-5.9,72.81-12.22S258.46,235.67,258.53,236.1Z" style="fill:#263238"></path><path d="M235.17,86.17c0,.39-21.88,3.8-48.9,7.62s-49,6.6-49,6.21,21.88-3.81,48.91-7.62S235.15,85.78,235.17,86.17Z" style="fill:#263238"></path><path d="M238.26,100.07c0,.39-21.88,3.81-48.9,7.62s-49,6.6-49,6.21,21.87-3.8,48.9-7.62S238.25,99.68,238.26,100.07Z" style="fill:#263238"></path><path d="M242,114.74c0,.4-21.88,3.81-48.91,7.63s-48.94,6.59-49,6.2S166,124.77,193,121,242,114.35,242,114.74Z" style="fill:#263238"></path><path d="M262.26,260.48c.07.42-32.53,5.9-72.81,12.22s-73,11.11-73,10.68,32.53-5.9,72.81-12.22S262.19,260.05,262.26,260.48Z" style="fill:#263238"></path><path d="M266,284.86c.07.42-32.53,5.9-72.8,12.22s-73,11.11-73.06,10.68,32.53-5.9,72.82-12.22S265.93,284.43,266,284.86Z" style="fill:#263238"></path><path d="M127.16,155.4c.08,1,.63,5.66.63,5.66l80.39-11.52-1.25-6.73Z" style="fill:#EF0F0F"></path><path d="M99.16,182.64c.09,1,.6,7.43.6,7.43l148.93-24.59-.71-8.1Z" style="fill:#EF0F0F"></path><path d="M103.59,206.5c.09,1,.6,7.44.6,7.44l148.93-24.59-.71-8.11Z" style="fill:#EF0F0F"></path><path d="M109.54,230.79c0,.37,1.46,7.55,1.46,7.55l74.63-12.14-.74-9.17Z" style="fill:#EF0F0F"></path><polygon points="87.86 98.58 94.54 146.78 138.43 140.63 132.45 92.58 87.86 98.58" style="fill:#263238"></polygon><polygon points="87.86 98.58 94.54 146.78 138.43 140.63 132.45 92.58 87.86 98.58" style="fill:#EF0F0F"></polygon><g style="clip-path:url(#freepik--clip-path--inject-23)"><path d="M109.74,138.5,123,134.92c-.21-1.59-1.46-7.63-1.46-7.63s5.43-1.91,4.45-7.51-4.33-18.24-4.33-18.24h0a19.74,19.74,0,0,0-19,6.1l-.71.79Z" style="fill:#ffbe9d"></path><path d="M122.13,111.38A.82.82,0,1,1,123,110a.81.81,0,0,1,.27,1.13A.83.83,0,0,1,122.13,111.38Z" style="fill:#263238"></path><path d="M123.25,109.85c-.07.12-.7-.2-1.47-.06s-1.25.64-1.35.56,0-.23.21-.46a1.85,1.85,0,0,1,1.06-.57,2,2,0,0,1,1.19.17C123.17,109.64,123.28,109.8,123.25,109.85Z" style="fill:#263238"></path><path d="M114.51,112.18a.82.82,0,0,1,.48,1.06.82.82,0,1,1-1.54-.59A.82.82,0,0,1,114.51,112.18Z" style="fill:#263238"></path><path d="M115,112.09c-.07.11-.7-.21-1.46-.07s-1.26.65-1.36.56,0-.22.21-.46a2,2,0,0,1,2.26-.39C114.94,111.88,115.06,112,115,112.09Z" style="fill:#263238"></path><path d="M119.29,117.86a3.89,3.89,0,0,1,1.19-.5c.2-.06.35-.13.35-.24a1.14,1.14,0,0,0-.26-.55l-.9-1.45a22.7,22.7,0,0,1-2.08-3.86,20.78,20.78,0,0,1,2.46,3.63l.87,1.47a1.29,1.29,0,0,1,.27.81.52.52,0,0,1-.29.39,1.41,1.41,0,0,1-.33.11A3.85,3.85,0,0,1,119.29,117.86Z" style="fill:#263238"></path><path d="M117,119.18c-.89-.33,2.43.76,4,.39a2.16,2.16,0,0,1-2.35,1.31C116.79,120.58,117,119.18,117,119.18Z" style="fill:#fff"></path><path d="M121.51,127.21a13.18,13.18,0,0,1-7.67-.71s2.47,3.7,8,2.15Z" style="fill:#eb996e"></path><path d="M102.87,113.83c-.13,0-4.22.47-2.67,5s5.66,1.5,5.63,1.37S102.87,113.83,102.87,113.83Z" style="fill:#ffbe9d"></path><path d="M103.88,119.12s-.06.08-.18.19a.85.85,0,0,1-.59.21c-.54,0-1.21-.64-1.51-1.46a2.79,2.79,0,0,1-.16-1.22,1,1,0,0,1,.39-.82.42.42,0,0,1,.54.06c.11.11.11.21.14.21s.07-.11,0-.29a.54.54,0,0,0-.28-.22.62.62,0,0,0-.48,0,1.19,1.19,0,0,0-.59,1,2.85,2.85,0,0,0,.15,1.37,2.19,2.19,0,0,0,1.84,1.59.88.88,0,0,0,.68-.37C103.91,119.23,103.9,119.12,103.88,119.12Z" style="fill:#eb996e"></path><path d="M121.58,101.38c-.73,4.11-6,6.66-10.06,7.65,1.59-2,.48-1.45,1.44-2.84a17.64,17.64,0,0,1-10.58,6.35,7.57,7.57,0,0,1,3.17-10.41c1.19-.61,2.51-.9,3.74-1.43,1-.45,2-1.08,3.06-1.45,3.2-1.1,8.37-3,9.23,2.13" style="fill:#263238"></path><path d="M104.5,110c-.11.58-.1,7.14-.1,7.14l-2.57-5.85Z" style="fill:#263238"></path><path d="M83.46,161.85l11.11-16.37h0a24.65,24.65,0,0,1,8.31-7.89,19.62,19.62,0,0,1,5.71-2.24h0a24.21,24.21,0,0,0,14.32-2.67,35,35,0,0,1,11.89,1.13h0l22,4.48-3.18,19.3L142,156l2.52,17.12,6.92,25-42.36,8.36-3.76-23.17-3.08-16.69-5,7.1Z" style="fill:#455a64"></path></g></g></svg>